<?xml version="1.0" encoding="utf-8"?>
<!-- Generator: Adobe Illustrator 21.0.0, SVG Export Plug-In . SVG Version: 6.00 Build 0)  -->
<svg version="1.1" id="Layer_1" xmlns="http://www.w3.org/2000/svg" xmlns:xlink="http://www.w3.org/1999/xlink" x="0px" y="0px"
	 viewBox="0 0 2272 1872" style="enable-background:new 0 0 2272 1872;" xml:space="preserve">
<style type="text/css">
	.st0{clip-path:url(#SVGID_2_);fill:url(#SVGID_3_);}
	.st1{clip-path:url(#SVGID_2_);fill:url(#SVGID_4_);}
	.st2{clip-path:url(#SVGID_2_);}
	.st3{fill:url(#SVGID_5_);}
	.st4{fill:url(#SVGID_6_);}
	.st5{fill:url(#SVGID_7_);}
	.st6{clip-path:url(#SVGID_2_);fill:#B0DBE2;}
	.st7{fill:#9DC2C6;}
	.st8{clip-path:url(#SVGID_2_);fill:#9DC2C6;}
	.st9{opacity:0.69;clip-path:url(#SVGID_2_);fill:#D0EDF4;}
	.st10{fill:#828282;}
	.st11{fill:#939393;}
	.st12{fill:#E0E0E0;}
	.st13{fill:#D3D3D3;}
	.st14{fill:#CCCCCB;}
	.st15{fill:#CFCFCE;}
	.st16{fill:#BCBCBC;}
	.st17{fill:#204284;}
	.st18{fill:#95334F;}
	.st19{fill:#F6F7EE;}
	.st20{fill:#6D6D6D;}
	.st21{fill:#848484;}
	.st22{fill:#4C7B6A;}
	.st23{fill:#608E7D;}
	.st24{fill:#735D4A;}
	.st25{fill:#DB8364;}
	.st26{fill:#BA6B56;}
	.st27{fill:#9A5245;}
	.st28{fill:#F79D80;}
	.st29{fill:#C9C9C9;}
	.st30{fill:#A09F9F;}
	.st31{fill:#B3B3B3;}
	.st32{fill:#898585;}
	.st33{fill:#666766;}
	.st34{fill:#707071;}
	.st35{fill:#FFFFFF;}
	.st36{fill:#7F7F7F;}
	.st37{fill:#4C3F36;}
	.st38{fill:#FEE14D;}
	.st39{fill:#CF5959;}
</style>
<g>
	<defs>
		<rect id="SVGID_1_" width="2272" height="1872"/>
	</defs>
	<clipPath id="SVGID_2_">
		<use xlink:href="#SVGID_1_"  style="overflow:visible;"/>
	</clipPath>
	<linearGradient id="SVGID_3_" gradientUnits="userSpaceOnUse" x1="1136" y1="1054.7372" x2="1136" y2="395.7745">
		<stop  offset="0" style="stop-color:#9FDCF4"/>
		<stop  offset="1" style="stop-color:#C2E8F6"/>
	</linearGradient>
	<rect class="st0" width="2272" height="1872"/>
	<linearGradient id="SVGID_4_" gradientUnits="userSpaceOnUse" x1="1197.0647" y1="83.9103" x2="684.4796" y2="1755.3867">
		<stop  offset="0" style="stop-color:#9FDCF4"/>
		<stop  offset="1" style="stop-color:#C2E8F6"/>
	</linearGradient>
	<path class="st1" d="M0,0v576.6C57.3,504,117.9,434.2,188,374.1C292.1,284.7,420.1,217.1,557,209c188.4-11.1,376.4,89.7,560.6,48.4
		c104.7-23.4,194.2-90.4,295.1-126.7c106.1-38.2,231.1-39.1,325.3,22.8c65.7,43.2,109.8,111.5,161.2,171
		c98.2,113.8,229.6,196.5,372.8,241.5V0H0z"/>
	<g class="st2">
		<linearGradient id="SVGID_5_" gradientUnits="userSpaceOnUse" x1="972.2439" y1="424.9048" x2="1105.7571" y2="-292.4002">
			<stop  offset="0" style="stop-color:#9FDCF4"/>
			<stop  offset="1" style="stop-color:#C2E8F6"/>
		</linearGradient>
		<path class="st3" d="M1242.6,64c58.2-17.2,113.8-42.5,170.6-64H689.5C759.6,20.5,828.1,51.2,899,69.6
			C1011.2,98.8,1131.4,96.8,1242.6,64z"/>
		<linearGradient id="SVGID_6_" gradientUnits="userSpaceOnUse" x1="177.1839" y1="614.5057" x2="240.2213" y2="-333.7927">
			<stop  offset="0" style="stop-color:#9FDCF4"/>
			<stop  offset="1" style="stop-color:#C2E8F6"/>
		</linearGradient>
		<path class="st4" d="M436.1,0H0v253.3c87.8-41.2,166-102,247.2-156C306,58.2,369.3,21.8,436.1,0z"/>
		<linearGradient id="SVGID_7_" gradientUnits="userSpaceOnUse" x1="1968.7832" y1="303.1278" x2="2306.4912" y2="-233.5401">
			<stop  offset="0" style="stop-color:#9FDCF4"/>
			<stop  offset="1" style="stop-color:#C2E8F6"/>
		</linearGradient>
		<path class="st5" d="M2250.4,338.6c7.1,4.2,14.3,8.1,21.6,11.9V0h-445.5c24.4,10.5,48,22.9,70.4,37.2
			C2027.9,120.6,2116.4,260.2,2250.4,338.6z"/>
	</g>
	<path class="st6" d="M1559.6,972.4c46.7-29,108.1-42,156.5-16c25.4,13.7,44.6,36.5,68.7,52.5c51.6,34.3,128.7,29.6,169.3-17.2
		c40.5-46.7,36.5-115.4,41.1-177c5.9-77.4,32.7-158.4,94.8-204.9c28.5-21.4,62.8-34.1,97.8-41.1c70.1-14,152.7-0.4,194.5,57.5
		c21.4,29.6,29.3,66.7,34.7,102.8c14.3,95.2,15.1,192.4,2.3,287.8c-4.5,33.4-11,67.6-29.3,95.9c-20.8,32.2-54.6,53.5-88.9,70.4
		c-77.3,38.3-161.8,59.6-245.5,80.6c-107.6,27-215.6,54.1-325.9,65.9c-43.2,4.6-87.4,6.8-129.6-3.4c-30.5-7.4-59-21-87.3-34.6
		c-18.4-8.8-37.2-18-50.8-33.1c-11.6-12.9-18.5-29.2-24.4-45.5c-11.5-31.5-20-64.1-25.5-97.1c-3.8-23.1-17.8-76.3-4.2-97.4
		c14.8-23.1,41-8.4,62.2-7.7C1505.3,1012.1,1531.4,989.9,1559.6,972.4z"/>
	<path class="st6" d="M1403.4,1004.6c-8.2,22.7-17.8,47.1-38.5,59.3c-30.9,18.1-72.2-0.8-93.5-29.6c-21.3-28.8-29-65.1-42-98.5
		c-13-33.4-35.1-67.3-69.7-76.5c-8.6-2.3-17.7-2.9-26.2-0.3c-9.5,2.9-17.4,9.7-24.7,16.4c-42.6,39-79.6,84.9-128.1,116.3
		C932,1023,866.3,1037.1,817,1007c-50.2-30.7-66.6-94.2-91.7-147.4c-20.4-43-49.4-82.6-87.5-111.2c-38.1-28.6-85.7-45.6-133.2-42.8
		c-56.5,3.3-109.3,34.4-145.5,77.9c-36.2,43.5-56.9,98.4-66.1,154.2c-6,36.3-7.3,74.3,4.8,109c16.4,47,55.5,82.7,97.3,109.7
		c71.8,46.5,155.9,73.6,241.3,77.8c28.3,1.4,57.2,0.3,84.2-8.2c54.1-16.9,98-62.1,154.2-69.5c42.3-5.5,84.2,11.5,121.2,32.7
		c37,21.2,71.7,47.1,111.6,62c65.1,24.2,141.9,15.6,199.2-23.8c57.2-39.4,92.8-108.9,89.9-178.4
		C1396.2,1038.2,1399.1,1014.8,1403.4,1004.6z"/>
	<g class="st2">
		<g>
			<rect x="1368.9" y="523.2" class="st7" width="13.3" height="661.8"/>
		</g>
		<g>
			<rect x="1521.3" y="523.2" class="st7" width="13.3" height="661.8"/>
		</g>
		<g>
			<path class="st7" d="M1521.3,1190c-1.4,0-2.7-0.6-3.7-1.7l-145.8-161.9c-1.3-1.5-1.7-3.6-0.9-5.4c0.8-1.8,2.6-3,4.6-3h140.2
				L1372,876.3c-1.4-1.4-1.9-3.6-1.1-5.5c0.8-1.9,2.6-3.1,4.6-3.1h140.2L1372,725.9c-1.4-1.4-1.9-3.6-1.1-5.5
				c0.8-1.9,2.6-3.1,4.6-3.1H1528c2.8,0,5,2.2,5,5c0,2.8-2.2,5-5,5h-140.2l143.8,141.8c1.4,1.4,1.9,3.6,1.1,5.5
				c-0.8,1.9-2.6,3.1-4.6,3.1h-140.2l143.8,141.8c1.4,1.4,1.9,3.6,1.1,5.5s-2.6,3.1-4.6,3.1h-141.2l138.2,153.6
				c1.8,2.1,1.7,5.2-0.4,7.1C1523.7,1189.6,1522.5,1190,1521.3,1190z"/>
		</g>
	</g>
	<rect x="1288.8" y="111.5" class="st8" width="10.2" height="327.1"/>
	<path class="st8" d="M1315,1193.6h-46.3V392.7c0-12.8,10.4-23.2,23.2-23.2l0,0c12.8,0,23.2,10.4,23.2,23.2V1193.6z"/>
	<path class="st9" d="M1427.4,688.2c-2.1,103.1-43.2,459-156.2,452.3c-29.8-1.8-58.3-15.3-77.2-38.4c-19-23.1-30.3-51.4-42.5-78.6
		c-22.7-50.7-49.4-99.6-79.7-146.1c-46.7-71.7-106.7-140.9-188.2-167.2c-81.5-26.2-186.8,7.3-213.7,88.6
		c-13.1,39.6-6.3,82.8,0.6,124c6.9,41.2,13.5,84.5-0.2,123.9c-13.7,39.5-54.8,72.8-95.3,62.6c-26.8-6.7-46.3-30-58.9-54.6
		c-27-52.5-31.6-115.3-64.2-164.4c-16.6-25-39.6-45-63.6-63c-30.9-23.2-64.7-44-102.5-51.9s-80.4-0.9-108.5,25.6
		c-32.1,30.2-39.2,78-42.6,122c-3.9,49.6-5.7,99.4-5.2,149.2c0.3,30.1,0,63.8-21.2,85.2c-21.8,22-56.9,21.8-87.8,19.3
		c-105.2-8.2-209.8-25-312.2-50.2c-40.8,139.1,43.4,324.5,163,406.3s267.8,108.1,411.6,126.1c418.3,52.5,843,52.9,1261.4,1
		c167.4-20.7,336-49.9,503.7-31.9c110.7,11.9,222.1,44.2,331.6,24.2c101.2-18.5,191.2-81.6,253.6-163.4
		c62.4-81.8,99-181.1,117.7-282.3c28.5-153.7,7.4-333.9-115.5-430.4c-28.5-22.3-62.3-39.4-98.3-42c-89.2-6.5-161.2,74.5-195.6,157
		c-34.4,82.5-47.9,174.9-98.7,248.4c-30.2-20.2-27.8-64.2-25.7-100.4c3.3-57.8-3.8-118.2-33.6-167.9
		c-29.9-49.6-86.2-86.1-143.8-80.1c-83.1,8.7-133.6,94.1-165.8,171.2c-32.2,77.1-63.9,188.1-147.3,193.2
		c-257,15.8-228.4-394.4-246.3-471.4L1427.4,688.2z"/>
	<g class="st2">
		<g>
			<path class="st10" d="M819.6,986.6h43.3c11.3,0,20.2,9.8,19,21.1L838,1412.5l-15.7-15.7L819.6,986.6z"/>
			<path class="st11" d="M808.2,934.3h43.3c11.3,0,20.2,9.8,19,21.1l-43.8,404.8l-15.7-15.7L808.2,934.3z"/>
			<g>
				<rect x="330.7" y="907.3" class="st12" width="494.3" height="494.3"/>
				<rect x="330.7" y="1292.9" class="st13" width="494.3" height="108.7"/>
				<rect x="468.7" y="907.3" class="st11" width="227.2" height="494.3"/>
				<rect x="226.4" y="1325.1" class="st12" width="703.5" height="105.1"/>
				<rect x="226.4" y="1393.2" class="st14" width="703.5" height="36.9"/>
				<rect x="487.9" y="986.6" class="st15" width="187.2" height="441.6"/>
				<rect x="520.6" y="1033.8" class="st16" width="128.1" height="394.4"/>
				<rect x="505.5" y="1185.3" class="st12" width="152.2" height="244.9"/>
				<rect x="532" y="1211.5" class="st14" width="104.1" height="218.7"/>
				<rect x="544.3" y="1325.7" class="st11" width="78.9" height="104.3"/>
				<g>
					<rect x="547.9" y="1382.3" class="st14" width="14.5" height="29.6"/>
					<rect x="567" y="1382.3" class="st14" width="14.5" height="29.6"/>
					<rect x="586.1" y="1382.3" class="st14" width="14.5" height="29.6"/>
					<rect x="605.2" y="1382.3" class="st14" width="14.5" height="29.6"/>
				</g>
				<rect x="675.2" y="1231" class="st11" width="75.8" height="197.2"/>
				<rect x="412.1" y="1231" class="st11" width="75.8" height="197.2"/>
			</g>
			<circle class="st17" cx="764.4" cy="1053.8" r="44.3"/>
			<rect x="357.6" y="934.3" class="st18" width="92.4" height="177.4"/>
			<rect x="357.6" y="934.3" class="st19" width="12.9" height="177.4"/>
			<rect x="390.9" y="934.3" class="st19" width="12.9" height="177.4"/>
			<rect x="424.2" y="934.3" class="st19" width="12.9" height="177.4"/>
			<rect x="357.6" y="934.3" class="st17" width="46.2" height="88.7"/>
		</g>
		<rect x="159.9" y="1412.5" class="st20" width="840.3" height="40.6"/>
	</g>
	<g class="st2">
		<rect y="1436" class="st11" width="2272" height="436"/>
		<path class="st21" d="M392.1,1831.7H143.9c-12.7,0-23-10.3-23-23l0,0c0-12.7,10.3-23,23-23h385.4c14.4,0,26-11.7,26-26
			s-11.7-26-26-26h-310c-12.3,0-22.3-10-22.3-22.3l0,0c0-12.3,10-22.3,22.3-22.3h375.5c9.7,0,17.6-7.9,17.6-17.6v0
			c0-9.7-7.9-17.6-17.6-17.6H487.7c-16,0-29-13-29-29v0c0-16,13-29,29-29h406.4c12.3,0,22.3-10,22.3-22.3l0,0
			c0-12.3-10-22.3-22.3-22.3h-569c-14.4,0-26-11.7-26-26v0c0-14.4,11.7-26,26-26h278.4c23.4,0,42.3-18.9,42.3-42.3l0,0
			c0-7.6-2-14.8-5.6-21H1.5v436h445.8C439.7,1848.3,417.6,1831.7,392.1,1831.7z"/>
		<path class="st21" d="M1881.4,1831.7h248.2c12.7,0,23-10.3,23-23l0,0c0-12.7-10.3-23-23-23h-385.4c-14.4,0-26-11.7-26-26
			s11.7-26,26-26h310c12.3,0,22.3-10,22.3-22.3l0,0c0-12.3-10-22.3-22.3-22.3h-375.5c-9.7,0-17.6-7.9-17.6-17.6v0
			c0-9.7,7.9-17.6,17.6-17.6h107.1c16,0,29-13,29-29v0c0-16-13-29-29-29h-406.4c-12.3,0-22.3-10-22.3-22.3l0,0
			c0-12.3,10-22.3,22.3-22.3h569c14.4,0,26-11.7,26-26v0c0-14.4-11.7-26-26-26H1670c-23.4,0-42.3-18.9-42.3-42.3l0,0
			c0-7.6,2-14.8,5.6-21H2272v436h-445.8C1833.8,1848.3,1856,1831.7,1881.4,1831.7z"/>
		<path class="st21" d="M1586,1654h-542c-9,0-16.4,7.3-16.4,16.4s7.3,16.4,16.4,16.4h542c9,0,16.4-7.3,16.4-16.4
			S1595,1654,1586,1654z"/>
		<path class="st21" d="M1235.6,1799.9h-542c-9,0-16.4,7.3-16.4,16.4c0,9,7.3,16.4,16.4,16.4h542c9,0,16.4-7.3,16.4-16.4
			C1252,1807.2,1244.6,1799.9,1235.6,1799.9z"/>
	</g>
	<g class="st2">
		<g>
			<rect x="1190.4" y="1292.9" class="st7" width="567.3" height="143.2"/>
		</g>
		<g>
			<rect x="1277.7" y="1239.8" class="st7" width="434.2" height="46"/>
		</g>
		<g>
			<rect x="1099" y="907.3" class="st7" width="91.4" height="277.7"/>
		</g>
		<g>
			<rect x="1206.2" y="907.3" class="st7" width="10.3" height="277.7"/>
		</g>
		<g>
			<rect x="1224.7" y="907.3" class="st7" width="10.3" height="277.7"/>
		</g>
		<g>
			<rect x="1682.5" y="907.3" class="st7" width="53.4" height="277.7"/>
		</g>
		<g>
			<rect x="1757.7" y="907.3" class="st7" width="15" height="277.7"/>
		</g>
		<g>
			<path class="st7" d="M1239.7,1213h-95c-2.8,0-5-2.2-5-5v-28.9c0-2.8,2.2-5,5-5s5,2.2,5,5v23.9h90c2.8,0,5,2.2,5,5
				S1242.4,1213,1239.7,1213z"/>
		</g>
		<g>
			<rect x="1205.3" y="1185" class="st7" width="579.1" height="46"/>
		</g>
	</g>
	<g class="st2">
		<path class="st22" d="M2075.9,1773.3c2-28,13.5-54.3,21.3-81.3c12.8-43.6,16.1-90.5,5.6-134.7c-12.8-53.6-44.9-100.4-77.3-145
			c-32.4-44.6-66.2-89.6-83.4-142c-17.2-52.4-14.9-114.7,20.5-157c53.5-64,155.6-58,222.8-107.5c21.3-15.7,38.7-36.7,62.2-48.8
			c23.5-12,57.2-11.2,71.2,11.2c11.7,18.8,4.5,42.9,2.3,64.9c-5.9,60.6,29.4,116.9,41.2,176.6c9,45.7,4.1,92.8,5.5,139.3
			c4.1,131.9,58.4,269.9,6.3,391.1c-15,34.8-38,65.6-62.6,94.5c-37.2,43.7-97.2,95.9-159.7,68.7
			C2106.7,1883.7,2072.6,1820.9,2075.9,1773.3z"/>
		<path class="st23" d="M2371.6,1399.5c-0.6-5.3-1.1-10.5-1.5-15.8c-9,6.1-18.1,12.2-27.3,18.1c-20.5,13.3-42,25.1-62.7,38
			c-11.5,7.1-23.3,14.5-33.5,23.3c-4.1,3.5-7.7,7.9-11.8,11.4c0-0.8,0.1-1.7,0.1-2.5c0.3-9.2-0.1-18.4,0.5-27.5
			c0.6-9.3,1.9-18.6,2.7-28c1.5-18.4,0.5-37.1,0.6-55.5c0.1-18.6-0.2-37.1,0.7-55.7c0.4-9.2,1-18.5,1.6-27.7
			c0.6-9,0.7-18.2,2.4-27.1c1.7-8.6,4.3-17.1,5.6-25.8c1.3-9.1,2.6-18.3,4.2-27.4c2.3-13.7,4.9-27.4,7.2-41.2
			c3.2-0.3,6.3-2.6,6.8-6.7c0.2-2,0.2-4,0-5.9c0,0,0-0.1,0-0.1c0-0.8-0.1-1.5-0.3-2.2c-0.6-3.1-1.6-6.1-2.8-9
			c1.9-14.9,3.3-29.8,4.4-44.8c2.9-37.2,7-74.3,8.6-111.5c0.4-8.9,0.4-17.7,0.7-26.6c-4.7,0.2-9.4,0.8-13.9,1.9
			c-0.2,6.5-0.3,13.1-0.5,19.6c-1.4,36.6-5.5,72.9-8.3,109.4c-0.8,10.2-1.6,20.4-2.5,30.6c-0.1-0.3-0.3-0.5-0.4-0.8
			c-7.4-14.8-13.9-30.1-22-44.5c-7.9-14-16.7-27.5-23.8-41.9c-3.4-6.8-6.5-13.8-11.6-19.6c-0.9-1.1-2-2-3-2.9c-2,1.6-4,3.2-6,4.7
			c-1.8,1.3-3.7,2.6-5.5,3.9c4.6,4,7.7,8.2,10.6,13.8c7.4,14.5,15.3,28.5,23.5,42.6c8.2,14,15,28.7,22,43.3
			c3.3,6.9,6.7,13.7,10.6,20.4c1,1.7,1.9,3.3,2.8,5c-2.6,18-6,35.8-9.1,53.6c-3,17.6-5.3,35.2-9.3,52.6c-4,17.3-4.2,35.3-5.2,52.9
			c-1.7,30.1-1.2,60.2-1.2,90.3c-0.1-0.1-0.2-0.2-0.3-0.4c-3.2-3.9-6-8.1-9.1-12c-9.2-11.7-19.4-22.7-29.5-33.5
			c-9.8-10.5-18.5-21.5-26.8-33.2c-8.3-11.6-17.1-22.6-26.3-33.5c-9.3-11-18.5-22.1-28.6-32.4c-10-10.3-20.9-19.4-30.5-30.1
			c-19.5-21.8-37.7-44.8-57.4-66.6c-13.2-14.6-26.6-28.9-39.8-43.4c-3.5,3.1-6.8,6.3-10,9.8c10.9,12,21.9,23.8,32.9,35.7
			c20.6,22.4,39.9,45.9,59.8,69c9.4,10.9,19.8,20.3,30.1,30.3c10.7,10.5,20.5,21.9,30.2,33.3c9.2,10.9,18.2,21.8,26.5,33.4
			c8.6,12.1,17.3,23.9,27.5,34.8c11,11.7,22.5,23.6,32.1,36.2c5.4,7.1,11,17.1,19.2,21.8c0,0.3,0,0.6,0,0.9
			c-0.2,17.8-3.6,35.4-3.6,53.2c0,8-0.2,16-0.7,24c-3.6,2.1-3.4,7.3-0.8,10.3c-0.6,6.6-1.5,13.3-2.5,19.8c-2.9,17.4-5.7,34.3-6.3,52
			c-0.4,11.1-0.4,22.1-0.4,33.2c-0.6-0.4-1.1-0.8-1.7-1.2c-4.6-3.4-8.8-7.2-13.2-10.9c-11.7-9.9-25.5-17.8-39-25.1
			c-16-8.6-32.6-15.4-49.5-22.1c-3.9-1.6-7.7-3.3-11.5-5.1c2.1,5.8,3.9,11.7,5.6,17.7c30.2,12.8,62.5,25.5,86.9,46.5
			c6.2,5.3,13.9,13.1,22.5,16.6c0,1.3,0,2.5,0,3.8c0,18.5-0.8,37.2,0.4,55.6c1.1,17.9,3.3,35.5,3.2,53.5
			c-0.1,18.4-0.2,36.8-0.1,55.2c0,18.3,0.7,36.7,0.3,54.9c-0.4,17.3-4.9,34.4-7.9,51.3c-1.3,7.3-2.7,14.5-3.8,21.7
			c4.9-0.8,9.8-2,14.5-3.5c3.1-16.2,6.3-32.4,9.2-48.7c3.2-18.2,1.8-36.6,1.8-55c-0.1-19.1-0.1-38.2-0.1-57.3
			c0.1-18.5,0.2-36.8-1.6-55.2c-1.8-18.4-1.8-36.6-1.8-55.1c0-6.8,0-13.6,0-20.4c5-2.3,4.1-9.3,0-12.1c0-7.6,0-15.2,0-22.9
			c0.1-17.7,0.7-35.5,4.1-52.9c2.2-11.5,3.9-23,5-34.6c6.9-3.2,12.5-8.8,18-14.3c8.2-8.2,18.2-14.6,27.9-20.9
			c21.8-14.1,44.6-26.3,66.4-40.3C2354.5,1410.9,2363,1405.2,2371.6,1399.5z"/>
	</g>
	<g class="st2">
		<path class="st22" d="M42.1,1491.4c2.6-23.3-2.9-46.7-5.3-70.1c-3.9-37.8,0.4-76.9,15.7-111.7c18.6-42.2,52.1-75.8,85.4-107.7
			c33.4-31.9,68-63.8,90.1-104.3c22.1-40.5,29.5-92.2,6.8-132.3C200.4,904.5,115.5,894,67.7,843.2c-15.1-16.1-26.3-36.1-43.9-49.5
			c-17.5-13.5-45.4-17.9-60.3-1.5c-12.4,13.7-10.1,34.6-11.7,53.1C-52.4,896-90,937-108.7,984.4c-14.3,36.2-17.3,75.8-25.5,113.8
			c-23.2,108-88.7,213.3-64.1,321c7.1,30.9,21.4,59.7,37.3,87.2c24,41.6,65.6,93.6,121.1,80.6C0.2,1577.6,37.8,1531,42.1,1491.4z"/>
		<path class="st23" d="M-144.8,1139.2c1.3-4.3,2.5-8.5,3.7-12.8c6.5,6.4,13.1,12.7,19.7,19c14.9,14,30.8,27,45.9,40.7
			c8.4,7.6,17,15.4,24.1,24.3c2.8,3.5,5.2,7.6,8,11.2c0.1-0.7,0.2-1.4,0.3-2.1c1.1-7.6,2.8-15.1,3.7-22.8c0.9-7.8,1.2-15.6,2-23.4
			c1.5-15.4,5.2-30.6,7.9-45.8c2.8-15.3,5.7-30.5,7.8-45.9c1-7.7,2-15.4,2.9-23.1c0.9-7.5,2.2-15.1,2.1-22.6
			c-0.1-7.4-0.9-14.7-0.7-22.1c0.3-7.7,0.6-15.5,0.7-23.2c0.2-11.7,0.1-23.3,0.3-35c-2.6-0.7-4.8-3.1-4.6-6.5
			c0.1-1.7,0.4-3.3,0.9-4.9c0,0,0-0.1,0-0.1c0.1-0.7,0.3-1.3,0.6-1.8c0.9-2.4,2.2-4.8,3.7-7c0.6-12.5,1.8-25,3.1-37.5
			c3.2-31,5.5-62.2,9.7-93.1c1-7.3,2.3-14.6,3.4-22c3.8,0.8,7.6,2.1,11.2,3.6c-0.8,5.4-1.7,10.8-2.5,16.2C4.7,833,2.6,863.5-0.6,894
			c-0.9,8.5-1.8,17-2.5,25.6c0.2-0.2,0.3-0.4,0.5-0.6c8.3-11.1,15.9-22.7,24.8-33.3c8.6-10.3,17.9-20.1,25.9-30.9
			c3.8-5.1,7.4-10.4,12.5-14.4c0.9-0.7,1.9-1.3,2.9-1.9c1.4,1.6,2.8,3.2,4.3,4.8c1.3,1.4,2.6,2.7,4,4c-4.4,2.6-7.6,5.6-10.8,9.8
			c-8.3,10.8-16.9,21.2-25.8,31.5c-8.9,10.3-16.7,21.3-24.6,32.3c-3.8,5.2-7.6,10.3-11.8,15.2c-1.1,1.2-2.1,2.5-3.1,3.7
			c-0.6,15.2-0.4,30.3-0.6,45.5c-0.2,14.9-0.9,29.7-0.2,44.7c0.7,14.8-1.9,29.7-3.7,44.4c-3.1,25-8.1,49.7-12.7,74.5
			c0.1-0.1,0.2-0.2,0.3-0.2c3.2-2.7,6.1-5.8,9.3-8.5c9.4-8.2,19.4-15.7,29.4-23.1c9.7-7.2,18.4-14.9,27.1-23.3
			c8.6-8.3,17.5-16,26.7-23.6c9.3-7.7,18.6-15.4,28.4-22.4c9.8-6.9,20.1-12.8,29.6-20.2c19.4-15,37.8-31.2,57.3-46.2
			c13-10,26.2-19.8,39.3-29.7c2.4,3.1,4.7,6.3,6.8,9.6c-10.8,8.2-21.6,16.3-32.4,24.4c-20.4,15.4-39.8,31.8-59.6,47.8
			c-9.3,7.6-19.4,13.8-29.3,20.4c-10.4,7-20.2,14.9-29.9,22.9c-9.2,7.6-18.3,15.2-26.9,23.5c-8.9,8.6-17.9,17.1-27.9,24.5
			c-10.8,8-22.1,16.1-31.9,25c-5.5,5-11.7,12.4-19.1,15c0,0.3-0.1,0.5-0.1,0.8c-2.6,14.7-2.4,29.7-5.1,44.4
			c-1.2,6.6-2.2,13.2-3,19.9c2.7,2.3,1.7,6.5-0.9,8.6c-0.5,5.6-0.8,11.1-0.9,16.7c-0.3,14.7-0.4,29.1-2.6,43.8
			c-1.4,9.2-3,18.3-4.7,27.4c0.5-0.2,1.1-0.5,1.6-0.8c4.3-2.1,8.4-4.6,12.5-7c11.1-6.4,23.7-10.8,35.8-14.7
			c14.5-4.7,29.2-7.7,44-10.8c3.5-0.7,6.9-1.5,10.2-2.5c-2.6,4.5-5,9.1-7.2,13.7c-26.8,6-55.2,11.6-78.5,25.2
			c-5.9,3.4-13.4,8.6-21,10.3c-0.2,1-0.4,2.1-0.6,3.1c-2.8,15.2-5,30.7-8.7,45.7c-3.6,14.6-8.1,28.7-10.7,43.6
			c-2.7,15.2-5.4,30.3-8.2,45.5c-2.8,15-6.1,30.1-8.5,45.2c-2.3,14.3-1.1,29-1.2,43.4c0,6.2,0,12.3-0.1,18.5
			c-3.9-1.4-7.7-3.1-11.4-5.1c-0.1-13.8-0.3-27.6-0.2-41.4c0.1-15.4,4-30.4,6.8-45.5c2.9-15.7,5.9-31.4,8.7-47.2
			c2.7-15.2,5.4-30.3,9.6-45.2c4.2-14.9,7-29.9,9.8-45.1c1-5.6,2.1-11.2,3.1-16.7c-3.8-2.6-2-8.3,1.8-9.9c1.2-6.3,2.3-12.5,3.4-18.8
			c2.6-14.6,4.8-29.3,4.6-44.2c-0.1-9.8,0.3-19.5,1.1-29.2c-5.2-3.7-8.9-9.1-12.6-14.5c-5.5-8-12.7-14.8-19.8-21.4
			c-15.8-14.9-32.8-28.4-48.6-43.2C-132.5,1151.1-138.7,1145.2-144.8,1139.2z"/>
	</g>
	<g class="st2">
		<g>
			<rect y="1255.5" class="st24" width="2272" height="37.4"/>
		</g>
		<g>
			<g>
				<path class="st24" d="M167.5,2001.8c-0.6,0-1.2-0.3-1.6-0.8l-526.6-725.6c-0.6-0.9-0.5-2.1,0.4-2.8c0.9-0.6,2.1-0.4,2.8,0.4
					l526.6,725.6c0.6,0.9,0.5,2.1-0.4,2.8C168.3,2001.6,167.9,2001.8,167.5,2001.8z"/>
			</g>
			<g>
				<path class="st24" d="M215.7,2001.8c-0.6,0-1.2-0.3-1.6-0.8l-526.6-725.6c-0.6-0.9-0.5-2.1,0.4-2.8c0.9-0.6,2.1-0.4,2.8,0.4
					l526.6,725.6c0.6,0.9,0.5,2.1-0.4,2.8C216.5,2001.6,216.1,2001.8,215.7,2001.8z"/>
			</g>
			<g>
				<path class="st24" d="M263.9,2001.8c-0.6,0-1.2-0.3-1.6-0.8l-526.6-725.6c-0.6-0.9-0.5-2.1,0.4-2.8c0.9-0.6,2.1-0.4,2.8,0.4
					l526.6,725.6c0.6,0.9,0.5,2.1-0.4,2.8C264.7,2001.6,264.3,2001.8,263.9,2001.8z"/>
			</g>
			<g>
				<path class="st24" d="M312.1,2001.8c-0.6,0-1.2-0.3-1.6-0.8l-526.6-725.6c-0.6-0.9-0.5-2.1,0.4-2.8c0.9-0.6,2.1-0.4,2.8,0.4
					l526.6,725.6c0.6,0.9,0.5,2.1-0.4,2.8C312.9,2001.6,312.5,2001.8,312.1,2001.8z"/>
			</g>
			<g>
				<path class="st24" d="M360.3,2001.8c-0.6,0-1.2-0.3-1.6-0.8l-526.6-725.6c-0.6-0.9-0.5-2.1,0.4-2.8c0.9-0.6,2.1-0.4,2.8,0.4
					l526.6,725.6c0.6,0.9,0.5,2.1-0.4,2.8C361.1,2001.6,360.7,2001.8,360.3,2001.8z"/>
			</g>
			<g>
				<path class="st24" d="M408.5,2001.8c-0.6,0-1.2-0.3-1.6-0.8l-526.6-725.6c-0.6-0.9-0.5-2.1,0.4-2.8c0.9-0.6,2.1-0.4,2.8,0.4
					l526.6,725.6c0.6,0.9,0.5,2.1-0.4,2.8C409.3,2001.6,408.9,2001.8,408.5,2001.8z"/>
			</g>
			<g>
				<path class="st24" d="M456.7,2001.8c-0.6,0-1.2-0.3-1.6-0.8l-526.6-725.6c-0.6-0.9-0.5-2.1,0.4-2.8c0.9-0.6,2.1-0.4,2.8,0.4
					l526.6,725.6c0.6,0.9,0.5,2.1-0.4,2.8C457.5,2001.6,457.1,2001.8,456.7,2001.8z"/>
			</g>
			<g>
				<path class="st24" d="M504.9,2001.8c-0.6,0-1.2-0.3-1.6-0.8l-526.6-725.6c-0.6-0.9-0.5-2.1,0.4-2.8c0.9-0.6,2.1-0.4,2.8,0.4
					l526.6,725.6c0.6,0.9,0.5,2.1-0.4,2.8C505.7,2001.6,505.3,2001.8,504.9,2001.8z"/>
			</g>
			<g>
				<path class="st24" d="M553.1,2001.8c-0.6,0-1.2-0.3-1.6-0.8L24.9,1275.4c-0.6-0.9-0.5-2.1,0.4-2.8c0.9-0.6,2.1-0.4,2.8,0.4
					l526.6,725.6c0.6,0.9,0.5,2.1-0.4,2.8C553.9,2001.6,553.5,2001.8,553.1,2001.8z"/>
			</g>
			<g>
				<path class="st24" d="M601.3,2001.8c-0.6,0-1.2-0.3-1.6-0.8L73.1,1275.4c-0.6-0.9-0.5-2.1,0.4-2.8c0.9-0.6,2.1-0.4,2.8,0.4
					l526.6,725.6c0.6,0.9,0.5,2.1-0.4,2.8C602.1,2001.6,601.7,2001.8,601.3,2001.8z"/>
			</g>
			<g>
				<path class="st24" d="M649.5,2001.8c-0.6,0-1.2-0.3-1.6-0.8l-526.6-725.6c-0.6-0.9-0.5-2.1,0.4-2.8c0.9-0.6,2.1-0.4,2.8,0.4
					l526.6,725.6c0.6,0.9,0.5,2.1-0.4,2.8C650.3,2001.6,649.9,2001.8,649.5,2001.8z"/>
			</g>
			<g>
				<path class="st24" d="M697.7,2001.8c-0.6,0-1.2-0.3-1.6-0.8l-526.6-725.6c-0.6-0.9-0.5-2.1,0.4-2.8c0.9-0.6,2.1-0.4,2.8,0.4
					l526.6,725.6c0.6,0.9,0.5,2.1-0.4,2.8C698.5,2001.6,698.1,2001.8,697.7,2001.8z"/>
			</g>
			<g>
				<path class="st24" d="M745.9,2001.8c-0.6,0-1.2-0.3-1.6-0.8l-526.6-725.6c-0.6-0.9-0.5-2.1,0.4-2.8c0.9-0.6,2.1-0.4,2.8,0.4
					l526.6,725.6c0.6,0.9,0.5,2.1-0.4,2.8C746.7,2001.6,746.3,2001.8,745.9,2001.8z"/>
			</g>
			<g>
				<path class="st24" d="M794.1,2001.8c-0.6,0-1.2-0.3-1.6-0.8l-526.6-725.6c-0.6-0.9-0.5-2.1,0.4-2.8c0.9-0.6,2.1-0.4,2.8,0.4
					l526.6,725.6c0.6,0.9,0.5,2.1-0.4,2.8C794.9,2001.6,794.5,2001.8,794.1,2001.8z"/>
			</g>
			<g>
				<path class="st24" d="M842.3,2001.8c-0.6,0-1.2-0.3-1.6-0.8l-526.6-725.6c-0.6-0.9-0.5-2.1,0.4-2.8c0.9-0.6,2.1-0.4,2.8,0.4
					l526.6,725.6c0.6,0.9,0.5,2.1-0.4,2.8C843.1,2001.6,842.7,2001.8,842.3,2001.8z"/>
			</g>
			<g>
				<path class="st24" d="M890.5,2001.8c-0.6,0-1.2-0.3-1.6-0.8l-526.6-725.6c-0.6-0.9-0.5-2.1,0.4-2.8c0.9-0.6,2.1-0.4,2.8,0.4
					l526.6,725.6c0.6,0.9,0.5,2.1-0.4,2.8C891.3,2001.6,890.9,2001.8,890.5,2001.8z"/>
			</g>
			<g>
				<path class="st24" d="M938.7,2001.8c-0.6,0-1.2-0.3-1.6-0.8l-526.6-725.6c-0.6-0.9-0.5-2.1,0.4-2.8c0.9-0.6,2.1-0.4,2.8,0.4
					l526.6,725.6c0.6,0.9,0.5,2.1-0.4,2.8C939.5,2001.6,939.1,2001.8,938.7,2001.8z"/>
			</g>
			<g>
				<path class="st24" d="M986.9,2001.8c-0.6,0-1.2-0.3-1.6-0.8l-526.6-725.6c-0.6-0.9-0.5-2.1,0.4-2.8c0.9-0.6,2.1-0.4,2.8,0.4
					l526.6,725.6c0.6,0.9,0.5,2.1-0.4,2.8C987.7,2001.6,987.3,2001.8,986.9,2001.8z"/>
			</g>
			<g>
				<path class="st24" d="M1035.1,2001.8c-0.6,0-1.2-0.3-1.6-0.8l-526.6-725.6c-0.6-0.9-0.5-2.1,0.4-2.8c0.9-0.6,2.1-0.4,2.8,0.4
					l526.6,725.6c0.6,0.9,0.5,2.1-0.4,2.8C1035.9,2001.6,1035.5,2001.8,1035.1,2001.8z"/>
			</g>
			<g>
				<path class="st24" d="M1083.3,2001.8c-0.6,0-1.2-0.3-1.6-0.8l-526.6-725.6c-0.6-0.9-0.5-2.1,0.4-2.8c0.9-0.6,2.1-0.4,2.8,0.4
					l526.6,725.6c0.6,0.9,0.5,2.1-0.4,2.8C1084.1,2001.6,1083.7,2001.8,1083.3,2001.8z"/>
			</g>
			<g>
				<path class="st24" d="M1131.5,2001.8c-0.6,0-1.2-0.3-1.6-0.8l-526.6-725.6c-0.6-0.9-0.5-2.1,0.4-2.8c0.9-0.6,2.1-0.4,2.8,0.4
					l526.6,725.6c0.6,0.9,0.5,2.1-0.4,2.8C1132.3,2001.6,1131.9,2001.8,1131.5,2001.8z"/>
			</g>
			<g>
				<path class="st24" d="M1179.7,2001.8c-0.6,0-1.2-0.3-1.6-0.8l-526.6-725.6c-0.6-0.9-0.5-2.1,0.4-2.8c0.9-0.6,2.1-0.4,2.8,0.4
					l526.6,725.6c0.6,0.9,0.4,2.1-0.4,2.8C1180.5,2001.6,1180.1,2001.8,1179.7,2001.8z"/>
			</g>
			<g>
				<path class="st24" d="M1227.9,2001.8c-0.6,0-1.2-0.3-1.6-0.8l-526.6-725.6c-0.6-0.9-0.5-2.1,0.4-2.8c0.9-0.6,2.1-0.4,2.8,0.4
					l526.6,725.6c0.6,0.9,0.4,2.1-0.4,2.8C1228.7,2001.6,1228.3,2001.8,1227.9,2001.8z"/>
			</g>
			<g>
				<path class="st24" d="M1276.1,2001.8c-0.6,0-1.2-0.3-1.6-0.8l-526.6-725.6c-0.6-0.9-0.5-2.1,0.4-2.8c0.9-0.6,2.1-0.4,2.8,0.4
					l526.6,725.6c0.6,0.9,0.4,2.1-0.4,2.8C1276.9,2001.6,1276.5,2001.8,1276.1,2001.8z"/>
			</g>
			<g>
				<path class="st24" d="M1324.3,2001.8c-0.6,0-1.2-0.3-1.6-0.8l-526.6-725.6c-0.6-0.9-0.5-2.1,0.4-2.8c0.9-0.6,2.1-0.4,2.8,0.4
					l526.6,725.6c0.6,0.9,0.4,2.1-0.4,2.8C1325.1,2001.6,1324.7,2001.8,1324.3,2001.8z"/>
			</g>
			<g>
				<path class="st24" d="M1372.5,2001.8c-0.6,0-1.2-0.3-1.6-0.8l-526.6-725.6c-0.6-0.9-0.5-2.1,0.4-2.8c0.9-0.6,2.1-0.4,2.8,0.4
					l526.6,725.6c0.6,0.9,0.4,2.1-0.4,2.8C1373.3,2001.6,1372.9,2001.8,1372.5,2001.8z"/>
			</g>
			<g>
				<path class="st24" d="M1420.7,2001.8c-0.6,0-1.2-0.3-1.6-0.8l-526.6-725.6c-0.6-0.9-0.5-2.1,0.4-2.8c0.9-0.6,2.1-0.4,2.8,0.4
					l526.6,725.6c0.6,0.9,0.4,2.1-0.4,2.8C1421.5,2001.6,1421.1,2001.8,1420.7,2001.8z"/>
			</g>
			<g>
				<path class="st24" d="M1468.9,2001.8c-0.6,0-1.2-0.3-1.6-0.8l-526.6-725.6c-0.6-0.9-0.5-2.1,0.4-2.8c0.9-0.6,2.1-0.4,2.8,0.4
					l526.6,725.6c0.6,0.9,0.4,2.1-0.4,2.8C1469.7,2001.6,1469.3,2001.8,1468.9,2001.8z"/>
			</g>
			<g>
				<path class="st24" d="M1517.1,2001.8c-0.6,0-1.2-0.3-1.6-0.8l-526.6-725.6c-0.6-0.9-0.5-2.1,0.4-2.8c0.9-0.6,2.1-0.4,2.8,0.4
					l526.6,725.6c0.6,0.9,0.4,2.1-0.4,2.8C1517.9,2001.6,1517.5,2001.8,1517.1,2001.8z"/>
			</g>
			<g>
				<path class="st24" d="M1565.3,2001.8c-0.6,0-1.2-0.3-1.6-0.8l-526.6-725.6c-0.6-0.9-0.5-2.1,0.4-2.8c0.9-0.6,2.1-0.4,2.8,0.4
					l526.6,725.6c0.6,0.9,0.4,2.1-0.4,2.8C1566.1,2001.6,1565.7,2001.8,1565.3,2001.8z"/>
			</g>
			<g>
				<path class="st24" d="M1613.5,2001.8c-0.6,0-1.2-0.3-1.6-0.8l-526.6-725.6c-0.6-0.9-0.5-2.1,0.4-2.8c0.9-0.6,2.1-0.4,2.8,0.4
					l526.6,725.6c0.6,0.9,0.4,2.1-0.4,2.8C1614.3,2001.6,1613.9,2001.8,1613.5,2001.8z"/>
			</g>
			<g>
				<path class="st24" d="M1661.7,2001.8c-0.6,0-1.2-0.3-1.6-0.8l-526.6-725.6c-0.6-0.9-0.5-2.1,0.4-2.8c0.9-0.6,2.1-0.4,2.8,0.4
					l526.6,725.6c0.6,0.9,0.4,2.1-0.4,2.8C1662.5,2001.6,1662.1,2001.8,1661.7,2001.8z"/>
			</g>
			<g>
				<path class="st24" d="M1709.9,2001.8c-0.6,0-1.2-0.3-1.6-0.8l-526.6-725.6c-0.6-0.9-0.4-2.1,0.4-2.8c0.9-0.6,2.1-0.4,2.8,0.4
					l526.6,725.6c0.6,0.9,0.4,2.1-0.4,2.8C1710.7,2001.6,1710.3,2001.8,1709.9,2001.8z"/>
			</g>
			<g>
				<path class="st24" d="M1758.1,2001.8c-0.6,0-1.2-0.3-1.6-0.8l-526.6-725.6c-0.6-0.9-0.4-2.1,0.4-2.8c0.9-0.6,2.1-0.4,2.8,0.4
					l526.6,725.6c0.6,0.9,0.4,2.1-0.4,2.8C1758.9,2001.6,1758.5,2001.8,1758.1,2001.8z"/>
			</g>
			<g>
				<path class="st24" d="M1806.3,2001.8c-0.6,0-1.2-0.3-1.6-0.8l-526.6-725.6c-0.6-0.9-0.4-2.1,0.4-2.8c0.9-0.6,2.1-0.4,2.8,0.4
					l526.6,725.6c0.6,0.9,0.4,2.1-0.4,2.8C1807.1,2001.6,1806.7,2001.8,1806.3,2001.8z"/>
			</g>
			<g>
				<path class="st24" d="M1854.5,2001.8c-0.6,0-1.2-0.3-1.6-0.8l-526.6-725.6c-0.6-0.9-0.4-2.1,0.4-2.8c0.9-0.6,2.1-0.4,2.8,0.4
					l526.6,725.6c0.6,0.9,0.4,2.1-0.4,2.8C1855.3,2001.6,1854.9,2001.8,1854.5,2001.8z"/>
			</g>
			<g>
				<path class="st24" d="M1902.7,2001.8c-0.6,0-1.2-0.3-1.6-0.8l-526.6-725.6c-0.6-0.9-0.4-2.1,0.4-2.8c0.9-0.6,2.1-0.4,2.8,0.4
					l526.6,725.6c0.6,0.9,0.4,2.1-0.4,2.8C1903.5,2001.6,1903.1,2001.8,1902.7,2001.8z"/>
			</g>
			<g>
				<path class="st24" d="M1950.9,2001.8c-0.6,0-1.2-0.3-1.6-0.8l-526.6-725.6c-0.6-0.9-0.4-2.1,0.4-2.8c0.9-0.6,2.1-0.4,2.8,0.4
					l526.6,725.6c0.6,0.9,0.4,2.1-0.4,2.8C1951.7,2001.6,1951.3,2001.8,1950.9,2001.8z"/>
			</g>
			<g>
				<path class="st24" d="M1999.1,2001.8c-0.6,0-1.2-0.3-1.6-0.8l-526.6-725.6c-0.6-0.9-0.4-2.1,0.4-2.8c0.9-0.6,2.1-0.4,2.8,0.4
					l526.6,725.6c0.6,0.9,0.4,2.1-0.4,2.8C1999.9,2001.6,1999.5,2001.8,1999.1,2001.8z"/>
			</g>
			<g>
				<path class="st24" d="M2047.3,2001.8c-0.6,0-1.2-0.3-1.6-0.8l-526.6-725.6c-0.6-0.9-0.4-2.1,0.4-2.8c0.9-0.6,2.1-0.4,2.8,0.4
					l526.6,725.6c0.6,0.9,0.4,2.1-0.4,2.8C2048.1,2001.6,2047.7,2001.8,2047.3,2001.8z"/>
			</g>
			<g>
				<path class="st24" d="M2095.5,2001.8c-0.6,0-1.2-0.3-1.6-0.8l-526.6-725.6c-0.6-0.9-0.4-2.1,0.4-2.8c0.9-0.6,2.1-0.4,2.8,0.4
					l526.6,725.6c0.6,0.9,0.4,2.1-0.4,2.8C2096.3,2001.6,2095.9,2001.8,2095.5,2001.8z"/>
			</g>
			<g>
				<path class="st24" d="M2143.7,2001.8c-0.6,0-1.2-0.3-1.6-0.8l-526.6-725.6c-0.6-0.9-0.4-2.1,0.4-2.8c0.9-0.6,2.1-0.4,2.8,0.4
					l526.6,725.6c0.6,0.9,0.4,2.1-0.4,2.8C2144.5,2001.6,2144.1,2001.8,2143.7,2001.8z"/>
			</g>
			<g>
				<path class="st24" d="M2191.9,2001.8c-0.6,0-1.2-0.3-1.6-0.8l-526.6-725.6c-0.6-0.9-0.4-2.1,0.4-2.8c0.9-0.6,2.1-0.4,2.8,0.4
					l526.6,725.6c0.6,0.9,0.4,2.1-0.4,2.8C2192.7,2001.6,2192.3,2001.8,2191.9,2001.8z"/>
			</g>
			<g>
				<path class="st24" d="M2240.1,2001.8c-0.6,0-1.2-0.3-1.6-0.8l-526.6-725.6c-0.6-0.9-0.4-2.1,0.4-2.8c0.9-0.6,2.1-0.4,2.8,0.4
					l526.6,725.6c0.6,0.9,0.4,2.1-0.4,2.8C2241,2001.6,2240.5,2001.8,2240.1,2001.8z"/>
			</g>
			<g>
				<path class="st24" d="M2288.3,2001.8c-0.6,0-1.2-0.3-1.6-0.8l-526.6-725.6c-0.6-0.9-0.4-2.1,0.4-2.8c0.9-0.6,2.1-0.4,2.8,0.4
					l526.6,725.6c0.6,0.9,0.4,2.1-0.4,2.8C2289.2,2001.6,2288.7,2001.8,2288.3,2001.8z"/>
			</g>
			<g>
				<path class="st24" d="M2336.5,2001.8c-0.6,0-1.2-0.3-1.6-0.8l-526.6-725.6c-0.6-0.9-0.4-2.1,0.4-2.8c0.9-0.6,2.1-0.4,2.8,0.4
					l526.6,725.6c0.6,0.9,0.4,2.1-0.4,2.8C2337.4,2001.6,2336.9,2001.8,2336.5,2001.8z"/>
			</g>
			<g>
				<path class="st24" d="M2384.7,2001.8c-0.6,0-1.2-0.3-1.6-0.8l-526.6-725.6c-0.6-0.9-0.4-2.1,0.4-2.8c0.9-0.6,2.1-0.4,2.8,0.4
					l526.6,725.6c0.6,0.9,0.4,2.1-0.4,2.8C2385.6,2001.6,2385.1,2001.8,2384.7,2001.8z"/>
			</g>
			<g>
				<path class="st24" d="M2432.9,2001.8c-0.6,0-1.2-0.3-1.6-0.8l-526.6-725.6c-0.6-0.9-0.4-2.1,0.4-2.8c0.9-0.6,2.1-0.4,2.8,0.4
					l526.6,725.6c0.6,0.9,0.4,2.1-0.4,2.8C2433.8,2001.6,2433.3,2001.8,2432.9,2001.8z"/>
			</g>
			<g>
				<path class="st24" d="M2481.1,2001.8c-0.6,0-1.2-0.3-1.6-0.8l-526.6-725.6c-0.6-0.9-0.4-2.1,0.4-2.8c0.9-0.6,2.1-0.4,2.8,0.4
					l526.6,725.6c0.6,0.9,0.4,2.1-0.4,2.8C2482,2001.6,2481.5,2001.8,2481.1,2001.8z"/>
			</g>
			<g>
				<path class="st24" d="M2529.3,2001.8c-0.6,0-1.2-0.3-1.6-0.8l-526.6-725.6c-0.6-0.9-0.4-2.1,0.4-2.8c0.9-0.6,2.1-0.4,2.8,0.4
					l526.6,725.6c0.6,0.9,0.4,2.1-0.4,2.8C2530.2,2001.6,2529.7,2001.8,2529.3,2001.8z"/>
			</g>
			<g>
				<path class="st24" d="M2577.5,2001.8c-0.6,0-1.2-0.3-1.6-0.8l-526.6-725.6c-0.6-0.9-0.4-2.1,0.4-2.8c0.9-0.6,2.1-0.4,2.8,0.4
					l526.6,725.6c0.6,0.9,0.4,2.1-0.4,2.8C2578.4,2001.6,2577.9,2001.8,2577.5,2001.8z"/>
			</g>
			<g>
				<path class="st24" d="M2625.7,2001.8c-0.6,0-1.2-0.3-1.6-0.8l-526.6-725.6c-0.6-0.9-0.4-2.1,0.4-2.8c0.9-0.6,2.1-0.4,2.8,0.4
					l526.6,725.6c0.6,0.9,0.4,2.1-0.4,2.8C2626.6,2001.6,2626.1,2001.8,2625.7,2001.8z"/>
			</g>
			<g>
				<path class="st24" d="M2673.9,2001.8c-0.6,0-1.2-0.3-1.6-0.8l-526.6-725.6c-0.6-0.9-0.4-2.1,0.4-2.8c0.9-0.6,2.1-0.4,2.8,0.4
					l526.6,725.6c0.6,0.9,0.4,2.1-0.4,2.8C2674.8,2001.6,2674.3,2001.8,2673.9,2001.8z"/>
			</g>
			<g>
				<path class="st24" d="M2722.1,2001.8c-0.6,0-1.2-0.3-1.6-0.8L2194,1275.4c-0.6-0.9-0.4-2.1,0.4-2.8c0.9-0.6,2.1-0.4,2.8,0.4
					l526.6,725.6c0.6,0.9,0.4,2.1-0.4,2.8C2723,2001.6,2722.6,2001.8,2722.1,2001.8z"/>
			</g>
		</g>
		<g>
			<g>
				<path class="st24" d="M2195.6,2001.8c-0.4,0-0.8-0.1-1.2-0.4c-0.9-0.6-1.1-1.9-0.4-2.8l526.6-725.6c0.6-0.9,1.9-1.1,2.8-0.4
					c0.9,0.6,1.1,1.9,0.4,2.8l-526.6,725.6C2196.8,2001.5,2196.2,2001.8,2195.6,2001.8z"/>
			</g>
			<g>
				<path class="st24" d="M2147.4,2001.8c-0.4,0-0.8-0.1-1.2-0.4c-0.9-0.6-1.1-1.9-0.4-2.8l526.6-725.6c0.6-0.9,1.9-1.1,2.8-0.4
					c0.9,0.6,1.1,1.9,0.4,2.8L2149,2000.9C2148.6,2001.5,2148,2001.8,2147.4,2001.8z"/>
			</g>
			<g>
				<path class="st24" d="M2099.2,2001.8c-0.4,0-0.8-0.1-1.2-0.4c-0.9-0.6-1.1-1.9-0.4-2.8l526.6-725.6c0.6-0.9,1.9-1.1,2.8-0.4
					c0.9,0.6,1.1,1.9,0.4,2.8l-526.6,725.6C2100.4,2001.5,2099.8,2001.8,2099.2,2001.8z"/>
			</g>
			<g>
				<path class="st24" d="M2051,2001.8c-0.4,0-0.8-0.1-1.2-0.4c-0.9-0.6-1.1-1.9-0.4-2.8l526.6-725.6c0.6-0.9,1.9-1.1,2.8-0.4
					c0.9,0.6,1.1,1.9,0.4,2.8l-526.6,725.6C2052.2,2001.5,2051.6,2001.8,2051,2001.8z"/>
			</g>
			<g>
				<path class="st24" d="M2002.8,2001.8c-0.4,0-0.8-0.1-1.2-0.4c-0.9-0.6-1.1-1.9-0.4-2.8l526.6-725.6c0.6-0.9,1.9-1.1,2.8-0.4
					c0.9,0.6,1.1,1.9,0.4,2.8l-526.6,725.6C2004,2001.5,2003.4,2001.8,2002.8,2001.8z"/>
			</g>
			<g>
				<path class="st24" d="M1954.6,2001.8c-0.4,0-0.8-0.1-1.2-0.4c-0.9-0.6-1.1-1.9-0.4-2.8l526.6-725.6c0.6-0.9,1.9-1.1,2.8-0.4
					c0.9,0.6,1.1,1.9,0.4,2.8l-526.6,725.6C1955.8,2001.5,1955.2,2001.8,1954.6,2001.8z"/>
			</g>
			<g>
				<path class="st24" d="M1906.4,2001.8c-0.4,0-0.8-0.1-1.2-0.4c-0.9-0.6-1.1-1.9-0.4-2.8l526.6-725.6c0.6-0.9,1.9-1.1,2.8-0.4
					c0.9,0.6,1.1,1.9,0.4,2.8L1908,2000.9C1907.6,2001.5,1907,2001.8,1906.4,2001.8z"/>
			</g>
			<g>
				<path class="st24" d="M1858.2,2001.8c-0.4,0-0.8-0.1-1.2-0.4c-0.9-0.6-1.1-1.9-0.4-2.8l526.6-725.6c0.6-0.9,1.9-1.1,2.8-0.4
					c0.9,0.6,1.1,1.9,0.4,2.8l-526.6,725.6C1859.4,2001.5,1858.8,2001.8,1858.2,2001.8z"/>
			</g>
			<g>
				<path class="st24" d="M1810,2001.8c-0.4,0-0.8-0.1-1.2-0.4c-0.9-0.6-1.1-1.9-0.4-2.8l526.6-725.6c0.6-0.9,1.9-1.1,2.8-0.4
					c0.9,0.6,1.1,1.9,0.4,2.8l-526.6,725.6C1811.2,2001.5,1810.6,2001.8,1810,2001.8z"/>
			</g>
			<g>
				<path class="st24" d="M1761.8,2001.8c-0.4,0-0.8-0.1-1.2-0.4c-0.9-0.6-1.1-1.9-0.4-2.8l526.6-725.6c0.6-0.9,1.9-1.1,2.8-0.4
					c0.9,0.6,1.1,1.9,0.4,2.8l-526.6,725.6C1763,2001.5,1762.4,2001.8,1761.8,2001.8z"/>
			</g>
			<g>
				<path class="st24" d="M1713.6,2001.8c-0.4,0-0.8-0.1-1.2-0.4c-0.9-0.6-1.1-1.9-0.4-2.8l526.6-725.6c0.6-0.9,1.9-1.1,2.8-0.4
					c0.9,0.6,1.1,1.9,0.4,2.8l-526.6,725.6C1714.8,2001.5,1714.2,2001.8,1713.6,2001.8z"/>
			</g>
			<g>
				<path class="st24" d="M1665.4,2001.8c-0.4,0-0.8-0.1-1.2-0.4c-0.9-0.6-1.1-1.9-0.4-2.8l526.6-725.6c0.6-0.9,1.9-1.1,2.8-0.4
					c0.9,0.6,1.1,1.9,0.4,2.8L1667,2000.9C1666.6,2001.5,1666,2001.8,1665.4,2001.8z"/>
			</g>
			<g>
				<path class="st24" d="M1617.2,2001.8c-0.4,0-0.8-0.1-1.2-0.4c-0.9-0.6-1.1-1.9-0.4-2.8l526.6-725.6c0.6-0.9,1.9-1.1,2.8-0.4
					c0.9,0.6,1.1,1.9,0.4,2.8l-526.6,725.6C1618.4,2001.5,1617.8,2001.8,1617.2,2001.8z"/>
			</g>
			<g>
				<path class="st24" d="M1569,2001.8c-0.4,0-0.8-0.1-1.2-0.4c-0.9-0.6-1.1-1.9-0.4-2.8l526.6-725.6c0.6-0.9,1.9-1.1,2.8-0.4
					c0.9,0.6,1.1,1.9,0.4,2.8l-526.6,725.6C1570.2,2001.5,1569.6,2001.8,1569,2001.8z"/>
			</g>
			<g>
				<path class="st24" d="M1520.8,2001.8c-0.4,0-0.8-0.1-1.2-0.4c-0.9-0.6-1.1-1.9-0.4-2.8l526.6-725.6c0.6-0.9,1.9-1.1,2.8-0.4
					c0.9,0.6,1.1,1.9,0.4,2.8l-526.6,725.6C1522,2001.5,1521.4,2001.8,1520.8,2001.8z"/>
			</g>
			<g>
				<path class="st24" d="M1472.5,2001.8c-0.4,0-0.8-0.1-1.2-0.4c-0.9-0.6-1.1-1.9-0.4-2.8l526.6-725.6c0.6-0.9,1.9-1.1,2.8-0.4
					c0.9,0.6,1.1,1.9,0.4,2.8l-526.6,725.6C1473.8,2001.5,1473.2,2001.8,1472.5,2001.8z"/>
			</g>
			<g>
				<path class="st24" d="M1424.3,2001.8c-0.4,0-0.8-0.1-1.2-0.4c-0.9-0.6-1.1-1.9-0.4-2.8l526.6-725.6c0.6-0.9,1.9-1.1,2.8-0.4
					c0.9,0.6,1.1,1.9,0.4,2.8L1426,2000.9C1425.6,2001.5,1425,2001.8,1424.3,2001.8z"/>
			</g>
			<g>
				<path class="st24" d="M1376.1,2001.8c-0.4,0-0.8-0.1-1.2-0.4c-0.9-0.6-1.1-1.9-0.4-2.8l526.6-725.6c0.6-0.9,1.9-1.1,2.8-0.4
					c0.9,0.6,1.1,1.9,0.4,2.8l-526.6,725.6C1377.4,2001.5,1376.8,2001.8,1376.1,2001.8z"/>
			</g>
			<g>
				<path class="st24" d="M1327.9,2001.8c-0.4,0-0.8-0.1-1.2-0.4c-0.9-0.6-1.1-1.9-0.4-2.8l526.6-725.6c0.6-0.9,1.9-1.1,2.8-0.4
					c0.9,0.6,1.1,1.9,0.4,2.8l-526.6,725.6C1329.2,2001.5,1328.6,2001.8,1327.9,2001.8z"/>
			</g>
			<g>
				<path class="st24" d="M1279.7,2001.8c-0.4,0-0.8-0.1-1.2-0.4c-0.9-0.6-1.1-1.9-0.4-2.8l526.6-725.6c0.6-0.9,1.9-1.1,2.8-0.4
					c0.9,0.6,1.1,1.9,0.4,2.8l-526.6,725.6C1281,2001.5,1280.4,2001.8,1279.7,2001.8z"/>
			</g>
			<g>
				<path class="st24" d="M1231.5,2001.8c-0.4,0-0.8-0.1-1.2-0.4c-0.9-0.6-1.1-1.9-0.4-2.8l526.6-725.6c0.6-0.9,1.9-1.1,2.8-0.4
					c0.9,0.6,1.1,1.9,0.4,2.8l-526.6,725.6C1232.8,2001.5,1232.2,2001.8,1231.5,2001.8z"/>
			</g>
			<g>
				<path class="st24" d="M1183.3,2001.8c-0.4,0-0.8-0.1-1.2-0.4c-0.9-0.6-1.1-1.9-0.4-2.8l526.6-725.6c0.6-0.9,1.9-1.1,2.8-0.4
					c0.9,0.6,1.1,1.9,0.4,2.8L1185,2000.9C1184.6,2001.5,1184,2001.8,1183.3,2001.8z"/>
			</g>
			<g>
				<path class="st24" d="M1135.1,2001.8c-0.4,0-0.8-0.1-1.2-0.4c-0.9-0.6-1.1-1.9-0.4-2.8l526.6-725.6c0.6-0.9,1.9-1.1,2.8-0.4
					c0.9,0.6,1.1,1.9,0.4,2.8l-526.6,725.6C1136.4,2001.5,1135.8,2001.8,1135.1,2001.8z"/>
			</g>
			<g>
				<path class="st24" d="M1086.9,2001.8c-0.4,0-0.8-0.1-1.2-0.4c-0.9-0.6-1.1-1.9-0.4-2.8l526.6-725.6c0.6-0.9,1.9-1.1,2.8-0.4
					c0.9,0.6,1.1,1.9,0.4,2.8l-526.6,725.6C1088.2,2001.5,1087.6,2001.8,1086.9,2001.8z"/>
			</g>
			<g>
				<path class="st24" d="M1038.7,2001.8c-0.4,0-0.8-0.1-1.2-0.4c-0.9-0.6-1.1-1.9-0.4-2.8l526.6-725.6c0.6-0.9,1.9-1.1,2.8-0.4
					c0.9,0.6,1.1,1.9,0.4,2.8l-526.6,725.6C1040,2001.5,1039.4,2001.8,1038.7,2001.8z"/>
			</g>
			<g>
				<path class="st24" d="M990.5,2001.8c-0.4,0-0.8-0.1-1.2-0.4c-0.9-0.6-1.1-1.9-0.4-2.8l526.6-725.6c0.6-0.9,1.9-1.1,2.8-0.4
					c0.9,0.6,1.1,1.9,0.4,2.8l-526.6,725.6C991.8,2001.5,991.2,2001.8,990.5,2001.8z"/>
			</g>
			<g>
				<path class="st24" d="M942.3,2001.8c-0.4,0-0.8-0.1-1.2-0.4c-0.9-0.6-1.1-1.9-0.4-2.8l526.6-725.6c0.6-0.9,1.9-1.1,2.8-0.4
					c0.9,0.6,1.1,1.9,0.4,2.8L944,2000.9C943.6,2001.5,943,2001.8,942.3,2001.8z"/>
			</g>
			<g>
				<path class="st24" d="M894.1,2001.8c-0.4,0-0.8-0.1-1.2-0.4c-0.9-0.6-1.1-1.9-0.4-2.8l526.6-725.6c0.6-0.9,1.9-1.1,2.8-0.4
					c0.9,0.6,1.1,1.9,0.4,2.8l-526.6,725.6C895.4,2001.5,894.8,2001.8,894.1,2001.8z"/>
			</g>
			<g>
				<path class="st24" d="M845.9,2001.8c-0.4,0-0.8-0.1-1.2-0.4c-0.9-0.6-1.1-1.9-0.4-2.8l526.6-725.6c0.6-0.9,1.9-1.1,2.8-0.4
					c0.9,0.6,1.1,1.9,0.4,2.8l-526.6,725.6C847.2,2001.5,846.6,2001.8,845.9,2001.8z"/>
			</g>
			<g>
				<path class="st24" d="M797.7,2001.8c-0.4,0-0.8-0.1-1.2-0.4c-0.9-0.6-1.1-1.9-0.4-2.8l526.6-725.6c0.6-0.9,1.9-1.1,2.8-0.4
					c0.9,0.6,1.1,1.9,0.4,2.8l-526.6,725.6C799,2001.5,798.4,2001.8,797.7,2001.8z"/>
			</g>
			<g>
				<path class="st24" d="M749.5,2001.8c-0.4,0-0.8-0.1-1.2-0.4c-0.9-0.6-1.1-1.9-0.4-2.8l526.6-725.6c0.6-0.9,1.9-1.1,2.8-0.4
					c0.9,0.6,1.1,1.9,0.4,2.8l-526.6,725.6C750.8,2001.5,750.2,2001.8,749.5,2001.8z"/>
			</g>
			<g>
				<path class="st24" d="M701.3,2001.8c-0.4,0-0.8-0.1-1.2-0.4c-0.9-0.6-1.1-1.9-0.4-2.8l526.6-725.6c0.6-0.9,1.9-1.1,2.8-0.4
					c0.9,0.6,1.1,1.9,0.4,2.8L703,2000.9C702.6,2001.5,702,2001.8,701.3,2001.8z"/>
			</g>
			<g>
				<path class="st24" d="M653.1,2001.8c-0.4,0-0.8-0.1-1.2-0.4c-0.9-0.6-1.1-1.9-0.4-2.8l526.6-725.6c0.6-0.9,1.9-1.1,2.8-0.4
					c0.9,0.6,1.1,1.9,0.4,2.8l-526.6,725.6C654.4,2001.5,653.7,2001.8,653.1,2001.8z"/>
			</g>
			<g>
				<path class="st24" d="M604.9,2001.8c-0.4,0-0.8-0.1-1.2-0.4c-0.9-0.6-1.1-1.9-0.4-2.8l526.6-725.6c0.6-0.9,1.9-1.1,2.8-0.4
					c0.9,0.6,1.1,1.9,0.4,2.8l-526.6,725.6C606.2,2001.5,605.5,2001.8,604.9,2001.8z"/>
			</g>
			<g>
				<path class="st24" d="M556.7,2001.8c-0.4,0-0.8-0.1-1.2-0.4c-0.9-0.6-1.1-1.9-0.4-2.8l526.6-725.6c0.6-0.9,1.9-1.1,2.8-0.4
					c0.9,0.6,1.1,1.9,0.4,2.8l-526.6,725.6C558,2001.5,557.3,2001.8,556.7,2001.8z"/>
			</g>
			<g>
				<path class="st24" d="M508.5,2001.8c-0.4,0-0.8-0.1-1.2-0.4c-0.9-0.6-1.1-1.9-0.4-2.8l526.6-725.6c0.6-0.9,1.9-1.1,2.8-0.4
					c0.9,0.6,1.1,1.9,0.4,2.8l-526.6,725.6C509.8,2001.5,509.1,2001.8,508.5,2001.8z"/>
			</g>
			<g>
				<path class="st24" d="M460.3,2001.8c-0.4,0-0.8-0.1-1.2-0.4c-0.9-0.6-1.1-1.9-0.4-2.8L985.3,1273c0.6-0.9,1.9-1.1,2.8-0.4
					c0.9,0.6,1.1,1.9,0.4,2.8l-526.6,725.6C461.6,2001.5,460.9,2001.8,460.3,2001.8z"/>
			</g>
			<g>
				<path class="st24" d="M412.1,2001.8c-0.4,0-0.8-0.1-1.2-0.4c-0.9-0.6-1.1-1.9-0.4-2.8L937.1,1273c0.6-0.9,1.9-1.1,2.8-0.4
					c0.9,0.6,1.1,1.9,0.4,2.8l-526.6,725.6C413.4,2001.5,412.7,2001.8,412.1,2001.8z"/>
			</g>
			<g>
				<path class="st24" d="M363.9,2001.8c-0.4,0-0.8-0.1-1.2-0.4c-0.9-0.6-1.1-1.9-0.4-2.8L888.9,1273c0.6-0.9,1.9-1.1,2.8-0.4
					c0.9,0.6,1.1,1.9,0.4,2.8l-526.6,725.6C365.2,2001.5,364.5,2001.8,363.9,2001.8z"/>
			</g>
			<g>
				<path class="st24" d="M315.7,2001.8c-0.4,0-0.8-0.1-1.2-0.4c-0.9-0.6-1.1-1.9-0.4-2.8L840.7,1273c0.6-0.9,1.9-1.1,2.8-0.4
					c0.9,0.6,1.1,1.9,0.4,2.8l-526.6,725.6C317,2001.5,316.3,2001.8,315.7,2001.8z"/>
			</g>
			<g>
				<path class="st24" d="M267.5,2001.8c-0.4,0-0.8-0.1-1.2-0.4c-0.9-0.6-1.1-1.9-0.4-2.8L792.5,1273c0.6-0.9,1.9-1.1,2.8-0.4
					c0.9,0.6,1.1,1.9,0.4,2.8l-526.6,725.6C268.8,2001.5,268.1,2001.8,267.5,2001.8z"/>
			</g>
			<g>
				<path class="st24" d="M219.3,2001.8c-0.4,0-0.8-0.1-1.2-0.4c-0.9-0.6-1.1-1.9-0.4-2.8L744.3,1273c0.6-0.9,1.9-1.1,2.8-0.4
					c0.9,0.6,1.1,1.9,0.4,2.8l-526.6,725.6C220.5,2001.5,219.9,2001.8,219.3,2001.8z"/>
			</g>
			<g>
				<path class="st24" d="M171.1,2001.8c-0.4,0-0.8-0.1-1.2-0.4c-0.9-0.6-1.1-1.9-0.4-2.8L696.1,1273c0.6-0.9,1.9-1.1,2.8-0.4
					c0.9,0.6,1.1,1.9,0.4,2.8l-526.6,725.6C172.3,2001.5,171.7,2001.8,171.1,2001.8z"/>
			</g>
			<g>
				<path class="st24" d="M122.9,2001.8c-0.4,0-0.8-0.1-1.2-0.4c-0.9-0.6-1.1-1.9-0.4-2.8L647.9,1273c0.6-0.9,1.9-1.1,2.8-0.4
					c0.9,0.6,1.1,1.9,0.4,2.8l-526.6,725.6C124.1,2001.5,123.5,2001.8,122.9,2001.8z"/>
			</g>
			<g>
				<path class="st24" d="M74.7,2001.8c-0.4,0-0.8-0.1-1.2-0.4c-0.9-0.6-1.1-1.9-0.4-2.8L599.7,1273c0.6-0.9,1.9-1.1,2.8-0.4
					c0.9,0.6,1.1,1.9,0.4,2.8L76.3,2000.9C75.9,2001.5,75.3,2001.8,74.7,2001.8z"/>
			</g>
			<g>
				<path class="st24" d="M26.5,2001.8c-0.4,0-0.8-0.1-1.2-0.4c-0.9-0.6-1.1-1.9-0.4-2.8L551.5,1273c0.6-0.9,1.9-1.1,2.8-0.4
					c0.9,0.6,1.1,1.9,0.4,2.8L28.1,2000.9C27.7,2001.5,27.1,2001.8,26.5,2001.8z"/>
			</g>
			<g>
				<path class="st24" d="M-21.7,2001.8c-0.4,0-0.8-0.1-1.2-0.4c-0.9-0.6-1.1-1.9-0.4-2.8L503.3,1273c0.6-0.9,1.9-1.1,2.8-0.4
					c0.9,0.6,1.1,1.9,0.4,2.8l-526.6,725.6C-20.5,2001.5-21.1,2001.8-21.7,2001.8z"/>
			</g>
			<g>
				<path class="st24" d="M-69.9,2001.8c-0.4,0-0.8-0.1-1.2-0.4c-0.9-0.6-1.1-1.9-0.4-2.8L455.1,1273c0.6-0.9,1.9-1.1,2.8-0.4
					c0.9,0.6,1.1,1.9,0.4,2.8l-526.6,725.6C-68.7,2001.5-69.3,2001.8-69.9,2001.8z"/>
			</g>
			<g>
				<path class="st24" d="M-118.1,2001.8c-0.4,0-0.8-0.1-1.2-0.4c-0.9-0.6-1.1-1.9-0.4-2.8L406.9,1273c0.6-0.9,1.9-1.1,2.8-0.4
					c0.9,0.6,1.1,1.9,0.4,2.8l-526.6,725.6C-116.9,2001.5-117.5,2001.8-118.1,2001.8z"/>
			</g>
			<g>
				<path class="st24" d="M-166.3,2001.8c-0.4,0-0.8-0.1-1.2-0.4c-0.9-0.6-1.1-1.9-0.4-2.8L358.7,1273c0.6-0.9,1.9-1.1,2.8-0.4
					c0.9,0.6,1.1,1.9,0.4,2.8l-526.6,725.6C-165.1,2001.5-165.7,2001.8-166.3,2001.8z"/>
			</g>
			<g>
				<path class="st24" d="M-214.5,2001.8c-0.4,0-0.8-0.1-1.2-0.4c-0.9-0.6-1.1-1.9-0.4-2.8L310.5,1273c0.6-0.9,1.9-1.1,2.8-0.4
					c0.9,0.6,1.1,1.9,0.4,2.8l-526.6,725.6C-213.3,2001.5-213.9,2001.8-214.5,2001.8z"/>
			</g>
			<g>
				<path class="st24" d="M-262.7,2001.8c-0.4,0-0.8-0.1-1.2-0.4c-0.9-0.6-1.1-1.9-0.4-2.8L262.3,1273c0.6-0.9,1.9-1.1,2.8-0.4
					c0.9,0.6,1.1,1.9,0.4,2.8l-526.6,725.6C-261.5,2001.5-262.1,2001.8-262.7,2001.8z"/>
			</g>
			<g>
				<path class="st24" d="M-310.9,2001.8c-0.4,0-0.8-0.1-1.2-0.4c-0.9-0.6-1.1-1.9-0.4-2.8L214.1,1273c0.6-0.9,1.9-1.1,2.8-0.4
					c0.9,0.6,1.1,1.9,0.4,2.8l-526.6,725.6C-309.7,2001.5-310.3,2001.8-310.9,2001.8z"/>
			</g>
			<g>
				<path class="st24" d="M-359.1,2001.8c-0.4,0-0.8-0.1-1.2-0.4c-0.9-0.6-1.1-1.9-0.4-2.8L165.9,1273c0.6-0.9,1.9-1.1,2.8-0.4
					c0.9,0.6,1.1,1.9,0.4,2.8l-526.6,725.6C-357.9,2001.5-358.5,2001.8-359.1,2001.8z"/>
			</g>
			<g>
				<path class="st24" d="M-429.6,2001.8c-0.4,0-0.8-0.1-1.2-0.4c-0.9-0.6-1.1-1.9-0.4-2.8L95.4,1273c0.6-0.9,1.9-1.1,2.8-0.4
					c0.9,0.6,1.1,1.9,0.4,2.8L-428,2000.9C-428.3,2001.5-429,2001.8-429.6,2001.8z"/>
			</g>
		</g>
		<g>
			<path class="st24" d="M2770.3,2001.8c-0.6,0-1.2-0.3-1.6-0.8l-526.6-725.6c-0.6-0.9-0.4-2.1,0.4-2.8c0.9-0.6,2.1-0.4,2.8,0.4
				l526.6,725.6c0.6,0.9,0.4,2.1-0.4,2.8C2771.2,2001.6,2770.8,2001.8,2770.3,2001.8z"/>
		</g>
		<g>
			<path class="st24" d="M2818.5,2001.8c-0.6,0-1.2-0.3-1.6-0.8l-526.6-725.6c-0.6-0.9-0.4-2.1,0.4-2.8c0.9-0.6,2.1-0.4,2.8,0.4
				l526.6,725.6c0.6,0.9,0.4,2.1-0.4,2.8C2819.4,2001.6,2819,2001.8,2818.5,2001.8z"/>
		</g>
	</g>
	<path class="st9" d="M1507.1,965c-0.5,29.1,0.3,58.8,8.3,86.6c21,73,89.4,119.9,158.3,130.7c39.6,6.2,81,2.2,117.6-15.5
		c36.6-17.7,68-49.9,83.1-90.5c4.2-11.2,6.9-24.6,1.2-35.1c-6.9-12.6-22.7-14.8-35.9-13c-33.9,4.5-64.1,25.4-97.2,34.2
		c-59.5,15.8-128.7-14.3-155.8-74.6c-11.9-26.5-15.5-56.4-17.9-85.8c-3.2-38.6-4.6-77.5-4.1-116.3c0.3-23.6-3-48.9-28-24.9
		c-19.4,18.7-18.7,65.2-21.8,91.3C1510.3,889.6,1507.7,927.3,1507.1,965z"/>
	<path class="st9" d="M1392.1,987.7c0.5,32.2-0.3,65-8.3,95.8c-21,80.7-89.4,132.7-158.3,144.5c-39.6,6.8-81,2.5-117.6-17.1
		s-68-55.2-83.1-100.2c-4.2-12.4-6.9-27.3-1.2-38.8c6.9-13.9,22.7-16.4,35.9-14.4c33.9,5,64.1,28.1,97.2,37.8
		c59.5,17.5,128.7-15.8,155.8-82.5c11.9-29.3,15.5-62.3,17.9-94.9c3.2-42.7,4.6-85.7,4.1-128.6c-0.3-26.1,3-54.1,28-27.5
		c19.4,20.7,18.7,72.2,21.8,101C1388.9,904.3,1391.4,946,1392.1,987.7z"/>
	<g class="st2">
		<g>
			<path class="st25" d="M1453.8,781.6L1453.8,781.6c-38.4,0-69.5-31.1-69.5-69.5V299.8c0-36.4,12.2-71.8,34.7-100.5l15.6-19.9
				c11.1-14.1,32.6-13.7,43.1,0.8l14.9,20.6c20.1,27.8,30.9,61.2,30.9,95.4v415.7C1523.3,750.5,1492.2,781.6,1453.8,781.6z"/>
			<path class="st26" d="M1492.4,200.9l-14.9-20.6c-5.3-7.3-13.3-11-21.4-11.2v612.4c37.3-1.2,67.2-31.9,67.2-69.5V296.3
				C1523.3,262.1,1512.5,228.7,1492.4,200.9z"/>
			<path class="st26" d="M1456.1,313.6v-5c-7.1-0.3-13.9-1.1-20.2-2.2c-21.9-3.6-41.2-10.5-51.5-14.6c-0.1,1.8-0.1,3.5-0.2,5.3
				c10.8,4.3,29.6,10.8,50.7,14.2C1442.3,312.5,1449.3,313.3,1456.1,313.6z"/>
			<path class="st27" d="M1456.1,308.5v5c2.4,0.1,4.7,0.2,7,0.2c24.2,0,44.6-6,60.2-17.9c0-2.1-0.1-4.2-0.1-6.3
				C1503.9,305.8,1478.8,309.6,1456.1,308.5z"/>
			<path class="st26" d="M1456.1,424.5v-5c-7.1-0.3-13.9-1.1-20.2-2.2c-22.1-3.6-41.5-10.6-51.7-14.7v5.4
				c10.8,4.3,29.6,10.8,50.7,14.2C1442.3,423.5,1449.3,424.2,1456.1,424.5z"/>
			<path class="st27" d="M1456.1,419.5v5c2.4,0.1,4.7,0.2,7,0.2c24.2,0,44.6-6,60.2-17.9v-6.4
				C1504.1,416.8,1478.8,420.6,1456.1,419.5z"/>
			<path class="st26" d="M1456.1,535.5v-5c-7.1-0.3-13.9-1.1-20.2-2.2c-22.1-3.6-41.5-10.6-51.7-14.7v5.4
				c10.8,4.3,29.6,10.8,50.7,14.2C1442.3,534.4,1449.3,535.2,1456.1,535.5z"/>
			<path class="st27" d="M1456.1,530.5v5c2.4,0.1,4.7,0.2,7,0.2c24.2,0,44.6-6,60.2-17.9v-6.4
				C1504.1,527.7,1478.8,531.5,1456.1,530.5z"/>
			<g>
				<circle class="st26" cx="1441.4" cy="295" r="3.2"/>
				<circle class="st27" cx="1469.7" cy="295" r="3.2"/>
			</g>
			<g>
				<circle class="st26" cx="1405.4" cy="370" r="3.2"/>
				<circle class="st26" cx="1405.4" cy="502.3" r="3.2"/>
			</g>
			<g>
				<circle class="st27" cx="1503.7" cy="370" r="3.2"/>
				<circle class="st27" cx="1503.7" cy="502.3" r="3.2"/>
			</g>
			<g>
				<path class="st28" d="M1407.1,276.6c-0.3,0-0.5,0-0.8-0.1c-2.2-0.4-3.6-2.5-3.1-4.7c13-65.6,37.2-78.7,38.2-79.2
					c2-1,4.4-0.2,5.4,1.7c1,2,0.2,4.3-1.7,5.4c-0.4,0.2-22,12.8-34.1,73.7C1410.7,275.3,1409,276.6,1407.1,276.6z"/>
			</g>
		</g>
		<g>
			<g>
				<path class="st29" d="M1580.8,747.8H1520V279.7c0-0.2,0.1-0.5,0.2-0.7l26.4-43.1c1.2-2,6.2-2,7.4,0l26.4,43.1
					c0.1,0.2,0.2,0.5,0.2,0.7V747.8z"/>
				<path class="st30" d="M1580.8,279.7c0-0.2-0.1-0.5-0.2-0.7l-26.4-43.1c-0.6-1-2.2-1.5-3.7-1.5v513.5h30.4V279.7z"/>
				<g>
					<polygon class="st31" points="1522,275.9 1521.5,276.8 1579.2,276.8 1578.7,275.9 					"/>
					<rect x="1520" y="321.5" class="st31" width="60.8" height="0.9"/>
					<rect x="1520" y="367" class="st31" width="60.8" height="0.9"/>
					<rect x="1520" y="412.5" class="st31" width="60.8" height="0.9"/>
					<rect x="1520" y="458" class="st31" width="60.8" height="0.9"/>
					<rect x="1520" y="503.6" class="st31" width="60.8" height="0.9"/>
					<rect x="1520" y="549.1" class="st31" width="60.8" height="0.9"/>
				</g>
			</g>
			<polygon class="st32" points="1587,784.2 1511.6,783.3 1520,726.8 1580.8,726.8 			"/>
			<rect x="1538.9" y="736.1" class="st33" width="7.6" height="41.3"/>
			<rect x="1521.5" y="736.1" class="st33" width="7.6" height="41.3"/>
			<rect x="1555.7" y="736.1" class="st33" width="7.6" height="41.3"/>
			<rect x="1571.7" y="736.1" class="st33" width="7.6" height="41.3"/>
			<polygon class="st33" points="1513.2,772.7 1511.6,783.3 1587,784.2 1585.7,772.7 			"/>
		</g>
		<g>
			<g>
				<path class="st29" d="M1384.2,747.8h-60.8V279.7c0-0.2,0.1-0.5,0.2-0.7l26.4-43.1c1.2-2,6.2-2,7.4,0l26.4,43.1
					c0.1,0.2,0.2,0.5,0.2,0.7V747.8z"/>
				<path class="st30" d="M1384.2,279.7c0-0.2-0.1-0.5-0.2-0.7l-26.4-43.1c-0.6-1-2.2-1.5-3.7-1.5v513.5h30.4V279.7z"/>
				<g>
					<polygon class="st31" points="1325.5,275.9 1324.9,276.8 1382.7,276.8 1382.1,275.9 					"/>
					<rect x="1323.4" y="321.5" class="st31" width="60.8" height="0.9"/>
					<rect x="1323.4" y="367" class="st31" width="60.8" height="0.9"/>
					<rect x="1323.4" y="412.5" class="st31" width="60.8" height="0.9"/>
					<rect x="1323.4" y="458" class="st31" width="60.8" height="0.9"/>
					<rect x="1323.4" y="503.6" class="st31" width="60.8" height="0.9"/>
					<rect x="1323.4" y="549.1" class="st31" width="60.8" height="0.9"/>
				</g>
			</g>
			<polygon class="st32" points="1390.4,784.2 1315,783.3 1323.4,726.8 1384.2,726.8 			"/>
			<rect x="1342.4" y="736.1" class="st33" width="7.6" height="41.3"/>
			<rect x="1324.9" y="736.1" class="st33" width="7.6" height="41.3"/>
			<rect x="1359.2" y="736.1" class="st33" width="7.6" height="41.3"/>
			<rect x="1375.1" y="736.1" class="st33" width="7.6" height="41.3"/>
			<polygon class="st33" points="1316.6,772.7 1315,783.3 1390.4,784.2 1389.2,772.7 			"/>
		</g>
		<g>
			<rect x="1419.9" y="706.4" class="st33" width="73.9" height="30.7"/>
			<g>
				<rect x="1423.2" y="711.5" class="st11" width="6.1" height="25.6"/>
				<rect x="1435.2" y="711.5" class="st11" width="6.1" height="25.6"/>
				<rect x="1447.3" y="711.5" class="st11" width="6.1" height="25.6"/>
				<rect x="1459.3" y="711.5" class="st11" width="6.1" height="25.6"/>
				<rect x="1471.4" y="711.5" class="st11" width="6.1" height="25.6"/>
				<rect x="1483.4" y="711.5" class="st11" width="6.1" height="25.6"/>
			</g>
			<path class="st12" d="M1456.1,347.8c2.5,0,4.8,1.5,5.9,3.8c4.8,10.5,18,41.2,22.1,68.4c4.4,29.1,18.7,131,22.4,157.4
				c0.6,4.1,2.4,7.9,5.2,11l56.9,62.5c5.6,6.2,9.1,14.1,9.8,22.4l2.3,26.9l-81.7,13.7c-6.6,1.1-13.2,1.7-19.9,1.7h-19h-8.2h-19
				c-6.7,0-13.3-0.6-19.9-1.7l-81.7-13.7l2.3-26.9c0.7-8.4,4.2-16.2,9.8-22.4l56.9-62.5c2.8-3.1,4.6-6.9,5.2-11
				c3.7-26.4,18-128.3,22.4-157.4c4.2-27.3,17.3-57.9,22.1-68.4C1451.3,349.2,1453.6,347.8,1456.1,347.8L1456.1,347.8z"/>
			<path class="st29" d="M1493.8,650.8l13.2,37.5v24.3l73.8-12.4l-2.3-26.9c-0.7-8.4-4.2-16.2-9.8-22.4l-56.9-62.5
				c-2.8-3.1-4.6-6.9-5.2-11c-2.1-15.1-7.7-54.9-12.9-91.6c0.1,0.5,0.1,1,0.2,1.5V650.8z"/>
			<g>
				<path class="st34" d="M1347,658.7l58.7-66.9c2.9-3.3,4.7-7.4,5.2-11.8l17.2-160c-4.4,29.1-18.7,131-22.4,157.4
					c-0.6,4.1-2.4,7.9-5.2,11l-56.9,62.5c-5.6,6.2-9.1,14.1-9.8,22.4l-2.3,26.9l6.4,1.1l3.8-30.8
					C1342.2,666.1,1344.1,662,1347,658.7z"/>
				<path class="st34" d="M1578.4,673.3c-0.7-8.4-4.2-16.2-9.8-22.4l-56.9-62.5c-2.8-3.1-4.6-6.9-5.2-11
					c-3.4-24.6-16.1-114.8-21.4-150.5l16.5,153.1c0.5,4.4,2.3,8.5,5.2,11.8l58.7,66.9c2.9,3.3,4.8,7.4,5.3,11.8l3.8,30.8l6.1-1
					L1578.4,673.3z"/>
			</g>
			<path class="st35" d="M1493.8,650.8V487.3c-4-28.1-7.8-54.6-9.7-67.3c-4.2-27.3-17.3-57.9-22.1-68.4c-1-2.3-3.3-3.8-5.9-3.8
				c-2.5,0-4.8,1.5-5.9,3.8c-4.8,10.5-18,41.2-22.1,68.4c-1.8,11.8-5.2,35.7-8.9,61.7v169.2l-13.2,37.5v24.4l7.1,1.2
				c6.6,1.1,13.2,1.7,19.9,1.7h19h8.2h19c6.7,0,13.3-0.6,19.9-1.7l7.9-1.3v-24.3L1493.8,650.8z"/>
			<g>
				<polygon class="st11" points="1333.3,679.6 1332.5,688.3 1579.7,688.3 1579,679.6 				"/>
			</g>
			<g>
				<path class="st29" d="M1452,715.6h8.2h19c4.9,0,9.8-0.3,14.6-0.9v-38.5l-6.6-19.3H1426l-6,17.9v40.1c4.3,0.5,8.7,0.7,13.1,0.7
					H1452z"/>
				<path class="st12" d="M1426,656.9h61.2l-0.6-1.8c0,0,0-127.1,0-218.5c-1-6.8-1.8-12.5-2.5-16.6c-4.2-27.3-17.3-57.9-22.1-68.4
					c-1-2.3-3.3-3.8-5.9-3.8c-2.5,0-4.8,1.5-5.9,3.8c-4.6,10-16.7,38.3-21.5,64.6l-2.2,239L1426,656.9z"/>
				<path class="st34" d="M1450.2,374.7h13.2v-4.8h6.4c-3.1-8-6-14.5-7.7-18.4c-1-2.3-3.3-3.8-5.9-3.8c-2.5,0-4.8,1.5-5.9,3.8
					c-1.7,3.8-4.6,10.3-7.7,18.4h7.6V374.7z"/>
				<path class="st36" d="M1469.7,369.9h-6.4v4.8h-13.2v-4.8h-7.6c-2,5.1-4.1,10.8-6.1,16.9h39.3
					C1473.8,380.7,1471.7,375,1469.7,369.9z"/>
				<g>
					<path class="st29" d="M1486.6,655.1c0,0,0-127.1,0-218.5c-1-6.8-1.8-12.5-2.5-16.6c-1.8-11.6-5.2-23.8-8.9-34.9
						c0.2,0.6,0.4,1.1,0.6,1.7h-19.7c0,66.1,0,186.3,0,270.1h31.1L1486.6,655.1z"/>
					<path class="st33" d="M1463.3,374.7v-4.8h6.4c-1.4-3.5-2.7-6.7-3.9-9.6c0,0,0,0,0,0c-0.5-1.1-0.9-2.2-1.4-3.2
						c0-0.1-0.1-0.2-0.1-0.3c-0.1-0.3-0.2-0.5-0.3-0.8c-0.1-0.2-0.1-0.3-0.2-0.5c-0.1-0.3-0.2-0.6-0.4-0.8c-0.1-0.3-0.2-0.5-0.4-0.8
						c-0.1-0.2-0.1-0.3-0.2-0.4c-0.1-0.2-0.2-0.5-0.3-0.7c0-0.1-0.1-0.2-0.1-0.3c-0.1-0.3-0.3-0.6-0.4-0.9c-1-2.3-3.3-3.8-5.9-3.8
						c0,6.2,0,15.4,0,26.9H1463.3z"/>
					<path class="st34" d="M1463.3,369.9v4.8h-7.2c0,3.8,0,7.8,0,12.1h19.7c-0.2-0.6-0.4-1.1-0.6-1.7c-0.1-0.2-0.1-0.4-0.2-0.6
						c-0.2-0.5-0.4-1.1-0.5-1.6c-0.1-0.2-0.2-0.5-0.2-0.7c-0.2-0.5-0.4-1-0.5-1.5c-0.1-0.2-0.2-0.5-0.2-0.7c-0.2-0.5-0.4-1-0.6-1.5
						c-0.1-0.2-0.2-0.4-0.2-0.6c-0.2-0.5-0.4-1.1-0.6-1.6c-0.1-0.2-0.1-0.4-0.2-0.5c-0.2-0.6-0.4-1.1-0.6-1.6c0-0.1-0.1-0.3-0.1-0.4
						c-0.2-0.6-0.4-1.2-0.7-1.7c0-0.1-0.1-0.1-0.1-0.2c-0.2-0.6-0.5-1.2-0.7-1.8H1463.3z"/>
				</g>
			</g>
			<g>
				<path class="st36" d="M1476.8,427.4h-7v-4.8c0-4.1-3.3-7.4-7.4-7.4h-9.9c-4.1,0-7.4,3.3-7.4,7.4v4.8h-7v-4.8
					c0-7.9,6.4-14.4,14.4-14.4h9.9c7.9,0,14.4,6.4,14.4,14.4V427.4z"/>
			</g>
			<rect x="1450.1" y="438.6" class="st36" width="4.5" height="6.2"/>
			<rect x="1459.8" y="438.6" class="st36" width="4.5" height="6.2"/>
			<path class="st12" d="M1426.6,448.6"/>
			<path class="st11" d="M1487.2,656.9h-31.1v58.7h4.1h19c4.9,0,9.8-0.3,14.6-0.9v-38.5L1487.2,656.9z"/>
			<path class="st35" d="M1441.3,477.7L1441.3,477.7c-3.3,0-6,2.7-6,6v70.9c0,3.3,2.7,6,6,6l0,0c3.3,0,6-2.7,6-6v-70.9
				C1447.3,480.4,1444.6,477.7,1441.3,477.7z"/>
		</g>
	</g>
	<rect x="1235.1" y="519.2" class="st8" width="43" height="247.5"/>
	<g class="st2">
		<g>
			<path class="st37" d="M1328.6,1622.7l-60.3-106.1l-60.3-106.1c-11.8-20.7-41.5-20.9-53.5-0.3l-61.7,105.3l-61.7,105.3
				c-12,20.5,2.7,46.4,26.4,46.5l122,0.8l122,0.8C1325.4,1669.1,1340.4,1643.4,1328.6,1622.7z"/>
			<path class="st38" d="M1301.6,1611.2l-49.4-86.8l-49.4-86.8c-9.6-16.9-33.9-17.1-43.8-0.3l-50.5,86.1l-50.5,86.1
				c-9.8,16.8,2.2,37.9,21.6,38.1l99.8,0.7l99.9,0.7C1298.9,1649.1,1311.2,1628.2,1301.6,1611.2z"/>
		</g>
		<g>
			<path class="st37" d="M1170,1459.8h24.4l-5.8,117.2h-12.9L1170,1459.8z M1171.2,1603.7h22v25.3h-22V1603.7z"/>
		</g>
	</g>
	<g class="st2">
		<g>
			<path class="st37" d="M1284.4,1796.5h-205.5c-18.1,0-32.7-14.7-32.7-32.7v-42.4c0-18.1,14.7-32.7,32.7-32.7h205.5
				c18.1,0,32.7,14.7,32.7,32.7v42.4C1317.2,1781.8,1302.5,1796.5,1284.4,1796.5z M1078.9,1714.9c-3.5,0-6.4,2.9-6.4,6.4v42.4
				c0,3.5,2.9,6.4,6.4,6.4h205.5c3.5,0,6.4-2.9,6.4-6.4v-42.4c0-3.5-2.9-6.4-6.4-6.4H1078.9z"/>
		</g>
		<path class="st39" d="M1284.4,1701.7h-205.5c-10.8,0-19.6,8.8-19.6,19.6v42.4c0,10.8,8.8,19.6,19.6,19.6h205.5
			c10.8,0,19.6-8.8,19.6-19.6v-42.4C1304,1710.5,1295.2,1701.7,1284.4,1701.7z"/>
	</g>
</g>
</svg>
