<?xml version="1.0" encoding="utf-8"?>
<!-- Generator: Adobe Illustrator 23.1.1, SVG Export Plug-In . SVG Version: 6.00 Build 0)  -->
<svg version="1.2" baseProfile="tiny" id="Layer_1" xmlns="http://www.w3.org/2000/svg" xmlns:xlink="http://www.w3.org/1999/xlink"
	 x="0px" y="0px" fill="black" viewBox="0 0 629.24 40.91" xml:space="preserve">
<g>
	<path d="M80.39,26.85c0,9.2,5.04,14.06,15.86,14.06h47.69v-7.98H98.79c-6.34,0-7.5-2.06-7.5-7.77v-1.32h50.53v-7.82H91.29V7.99
		h52.65V0H80.39V26.85z"/>
	<path d="M160.69,14.96v25.95h10.84V28.97h41.18v11.94h10.84V0H176.5C165.66,0,160.69,5.76,160.69,14.96z M212.71,7.99v12.94h-41.18
		v-3.6c0-5.6,0.9-9.35,7.51-9.35H212.71z"/>
	<polygon points="236.81,7.99 262.24,7.99 262.24,40.91 273.07,40.91 273.07,7.99 298.55,7.99 298.55,0 236.81,0 	"/>
	<path d="M54.24,17.55L13.9,14.22c-3.33-0.26-3.92-1.42-3.92-3.43c0-1.85,1.01-2.91,3.54-2.91h49.85V0H12.27C4.97,0,0,2.8,0,10.94
		c0,8.2,3.75,10.94,12.05,11.63l40.44,3.38c3.12,0.26,3.96,1.32,3.96,3.54c0,2.12-0.95,3.44-3.7,3.44H2.01v7.98h51.64
		c8.88,0,12.79-3.54,12.79-11.94C66.44,21.3,62.9,18.29,54.24,17.55z"/>
	<path d="M629.24,7.99V0h-63.55v26.85c0,9.2,5.04,14.06,15.86,14.06h47.69v-7.98h-45.15c-6.34,0-7.5-2.06-7.5-7.77v-1.32h50.53
		v-7.82h-50.53V7.99H629.24z"/>
	<path d="M536.56,0l-47.69,0v7.98v24.95v7.98v0h10.33v0l37.36,0c10.25,0,15.3-4.37,15.81-12.64h0.05V14.06
		C552.43,4.86,547.39,0,536.56,0z M541.53,23.84v1.32c0,5.71-1.16,7.77-7.5,7.77l-34.82,0V7.98l34.82,0c6.34,0,7.5,2.06,7.5,7.77
		v1.32V23.84L541.53,23.84z"/>
	<path d="M388.47,0l-37.36,0c-10.25,0-15.3,4.37-15.81,12.64h-0.05v14.21c0,9.2,5.04,14.06,15.86,14.06l47.69,0v-7.98l-10.33,0
		l-34.82,0c-6.34,0-7.5-2.06-7.5-7.77v-1.32l0-6.77l0,0v-1.32c0-5.71,1.16-7.77,7.5-7.77l34.82,0l10.33,0V0v0L388.47,0L388.47,0z"/>
	<path d="M319.44,8.4h-0.66h-1.65l-2.78,0c-1.64,0-2.45,0.7-2.53,2.02h-0.01v2.27c0,1.47,0.81,2.25,2.54,2.25l2.26,0h1.65l1.18,0
		c1.64,0,2.45-0.7,2.53-2.02h0.01v-2.27C321.98,9.18,321.17,8.4,319.44,8.4z"/>
	<path d="M319.44,25.97h-0.66h-1.65v0l-2.78,0c-1.64,0-2.45,0.7-2.53,2.02h-0.01v2.27c0,1.47,0.81,2.25,2.54,2.25h2.26h1.65v0
		l1.18,0c1.64,0,2.45-0.7,2.53-2.02h0.01v-2.27C321.98,26.75,321.17,25.97,319.44,25.97z"/>
	<g>
		<path d="M464.71,16.99v0.08l0,6.77l0,0v1.32c0,5.71-1.16,7.77-7.5,7.77l-1.6,0v0l-6.77,0l-6.77,0v0l-6.97,0l-13.49,7.26
			c1.84,0.47,3.93,0.72,6.32,0.72l14.14,0v0h10.33v0l7.36,0c10.25,0,15.3-4.37,15.81-12.64h0.05V14.06c0-1-0.07-1.93-0.19-2.83
			L464.71,16.99z"/>
		<path d="M422.96,25.16v-1.32l0-6.77l0,0v-1.32c0-5.71,1.16-7.77,7.5-7.77l11.6,0v0h3.22l10.33,0v0l1.6,0
			c0.47,0,0.9,0.02,1.31,0.04l11.07-5.95C467.11,0.7,463.85,0,459.75,0l-7.08,0h-7.39v0l-1.6,0l-15.76,0
			c-10.25,0-15.3,4.37-15.81,12.64h-0.05v14.21c0,2.15,0.29,4.04,0.84,5.71l10.11-5.44C422.98,26.52,422.96,25.87,422.96,25.16z"/>
	</g>
</g>
</svg>
