<?xml version="1.0" encoding="utf-8"?>
<!-- Generator: Adobe Illustrator 21.0.0, SVG Export Plug-In . SVG Version: 6.00 Build 0)  -->
<svg version="1.1" id="Layer_1" xmlns="http://www.w3.org/2000/svg" xmlns:xlink="http://www.w3.org/1999/xlink" x="0px" y="0px"
	 width="2272px" height="1872px" viewBox="0 0 2272 1872" enable-background="new 0 0 2272 1872" xml:space="preserve">
<g>
	<defs>
		<rect id="SVGID_1_" width="2272" height="1872"/>
	</defs>
	<clipPath id="SVGID_2_">
		<use xlink:href="#SVGID_1_"  overflow="visible"/>
	</clipPath>
	<rect clip-path="url(#SVGID_2_)" fill="#1D0A33" width="2272" height="1872"/>
	<g opacity="0.4" clip-path="url(#SVGID_2_)">
		<path fill="#FFFFFF" d="M1047.2,424.5c0-3.7,2.9-6.7,6.5-6.7c3.6,0,6.5,3,6.5,6.7c0,3.7-2.9,6.7-6.5,6.7
			C1050.1,431.1,1047.2,428.1,1047.2,424.5"/>
		<path fill="#FFFFFF" d="M1881.6,1373c0-8,6.4-14.5,14.2-14.5c7.9,0,14.2,6.5,14.2,14.5s-6.4,14.5-14.2,14.5
			C1888,1387.5,1881.6,1381,1881.6,1373"/>
		<path fill="#FFFFFF" d="M1740.6,1591.4c0-3.7,2.9-6.7,6.5-6.7c3.6,0,6.5,3,6.5,6.7c0,3.7-2.9,6.7-6.5,6.7
			C1743.5,1598.1,1740.6,1595.1,1740.6,1591.4"/>
		<path fill="#FFFFFF" d="M1880.9,1720c0-3.7,2.9-6.7,6.5-6.7c3.6,0,6.5,3,6.5,6.7c0,3.7-2.9,6.7-6.5,6.7
			C1883.8,1726.6,1880.9,1723.7,1880.9,1720"/>
		<path fill="#FFFFFF" d="M1607.3,1722.5c0-8,6.4-14.5,14.2-14.5c7.9,0,14.2,6.5,14.2,14.5c0,8-6.4,14.5-14.2,14.5
			C1613.7,1737,1607.3,1730.5,1607.3,1722.5"/>
		<path fill="#FFFFFF" d="M975.8,1840.6c0-8,6.4-14.5,14.2-14.5c7.9,0,14.2,6.5,14.2,14.5c0,8-6.4,14.5-14.2,14.5
			C982.1,1855.1,975.8,1848.6,975.8,1840.6"/>
		<path fill="#FFFFFF" d="M800.9,1518.4c0-8,6.4-14.5,14.2-14.5c7.9,0,14.2,6.5,14.2,14.5c0,8-6.4,14.5-14.2,14.5
			C807.3,1532.9,800.9,1526.5,800.9,1518.4"/>
		<path fill="#FFFFFF" d="M762.2,985.9c0-3.7,2.9-6.7,6.5-6.7c3.6,0,6.5,3,6.5,6.7c0,3.7-2.9,6.7-6.5,6.7
			C765.1,992.5,762.2,989.6,762.2,985.9"/>
		<path fill="#FFFFFF" d="M1172.6,1564c0-3.7,2.9-6.7,6.5-6.7c3.6,0,6.5,3,6.5,6.7c0,3.7-2.9,6.7-6.5,6.7
			C1175.5,1570.7,1172.6,1567.7,1172.6,1564"/>
		<path fill="#FFFFFF" d="M1011.1,1204.5c0-3.7,2.9-6.7,6.5-6.7c3.6,0,6.5,3,6.5,6.7c0,3.7-2.9,6.7-6.5,6.7
			C1014,1211.2,1011.1,1208.2,1011.1,1204.5"/>
		<path fill="#FFFFFF" d="M928.7,780.7c0-3.7,2.9-6.7,6.5-6.7c3.6,0,6.5,3,6.5,6.7c0,3.7-2.9,6.7-6.5,6.7
			C931.6,787.3,928.7,784.3,928.7,780.7"/>
		<path fill="#FFFFFF" d="M1280.6,555.6c0-8,6.4-14.5,14.2-14.5c7.9,0,14.2,6.5,14.2,14.5c0,8-6.4,14.5-14.2,14.5
			C1287,570.1,1280.6,563.6,1280.6,555.6"/>
		<path fill="#FFFFFF" d="M1054.6,570.1c0-3.7,2.9-6.7,6.5-6.7s6.5,3,6.5,6.7c0,3.7-2.9,6.7-6.5,6.7S1054.6,573.8,1054.6,570.1"/>
		<path fill="#FFFFFF" d="M1139.5,774c0-3.7,2.9-6.7,6.5-6.7c3.6,0,6.5,3,6.5,6.7c0,3.7-2.9,6.7-6.5,6.7
			C1142.5,780.7,1139.5,777.7,1139.5,774"/>
		<path fill="#FFFFFF" d="M1279.8,902.5c0-3.7,2.9-6.7,6.5-6.7c3.6,0,6.5,3,6.5,6.7c0,3.7-2.9,6.7-6.5,6.7
			C1282.8,909.2,1279.8,906.2,1279.8,902.5"/>
		<path fill="#FFFFFF" d="M489.1,745.2c0-3.7,2.9-6.7,6.5-6.7c3.6,0,6.5,3,6.5,6.7c0,3.7-2.9,6.7-6.5,6.7
			C492.1,751.8,489.1,748.9,489.1,745.2"/>
		<path fill="#FFFFFF" d="M1668.9,1431.2c0-3.7,2.9-6.7,6.5-6.7c3.6,0,6.5,3,6.5,6.7c0,3.7-2.9,6.7-6.5,6.7
			C1671.8,1437.9,1668.9,1434.9,1668.9,1431.2"/>
		<path fill="#FFFFFF" d="M1590.5,1683.5c0-3.7,2.9-6.7,6.5-6.7c3.6,0,6.5,3,6.5,6.7c0,3.7-2.9,6.7-6.5,6.7
			C1593.4,1690.1,1590.5,1687.2,1590.5,1683.5"/>
		<path fill="#FFFFFF" d="M1631.4,811.1c0-3.7,2.9-6.7,6.5-6.7c3.6,0,6.5,3,6.5,6.7c0,3.7-2.9,6.7-6.5,6.7
			C1634.3,817.7,1631.4,814.8,1631.4,811.1"/>
		<path fill="#FFFFFF" d="M248,618.9c0-3.7,2.9-6.7,6.5-6.7c3.6,0,6.5,3,6.5,6.7c0,3.7-2.9,6.7-6.5,6.7
			C250.9,625.6,248,622.6,248,618.9"/>
		<path fill="#FFFFFF" d="M1553,1063.3c0-3.7,2.9-6.7,6.5-6.7c3.6,0,6.5,3,6.5,6.7c0,3.7-2.9,6.7-6.5,6.7
			C1555.9,1070,1553,1067,1553,1063.3"/>
		<path fill="#FFFFFF" d="M1254,726.6c0-3.7,2.9-6.7,6.5-6.7c3.6,0,6.5,3,6.5,6.7c0,3.7-2.9,6.7-6.5,6.7
			C1256.9,733.3,1254,730.3,1254,726.6"/>
		<path fill="#FFFFFF" d="M1035.3,850.3c0-3.7,2.9-6.7,6.5-6.7c3.6,0,6.5,3,6.5,6.7c0,3.7-2.9,6.7-6.5,6.7
			C1038.2,857,1035.3,854,1035.3,850.3"/>
		<path fill="#FFFFFF" d="M1228.3,965.3c0-3.7,2.9-6.7,6.5-6.7c3.6,0,6.5,3,6.5,6.7c0,3.7-2.9,6.7-6.5,6.7
			C1231.3,971.9,1228.3,968.9,1228.3,965.3"/>
		<path fill="#FFFFFF" d="M785.9,841.6c0-3.7,2.9-6.7,6.5-6.7c3.6,0,6.5,3,6.5,6.7c0,3.7-2.9,6.7-6.5,6.7
			C788.9,848.3,785.9,845.3,785.9,841.6"/>
		<path fill="#FFFFFF" d="M1149.9,1217.5c0-3.7,2.9-6.7,6.5-6.7c3.6,0,6.5,3,6.5,6.7c0,3.7-2.9,6.7-6.5,6.7
			C1152.8,1224.2,1149.9,1221.2,1149.9,1217.5"/>
		<path fill="#FFFFFF" d="M344.5,130.1c0-3.7,2.9-6.7,6.5-6.7c3.6,0,6.5,3,6.5,6.7c0,3.7-2.9,6.7-6.5,6.7
			C347.4,136.7,344.5,133.8,344.5,130.1"/>
		<path fill="#FFFFFF" d="M484.8,258.6c0-3.7,2.9-6.7,6.5-6.7c3.6,0,6.5,3,6.5,6.7c0,3.7-2.9,6.7-6.5,6.7
			C487.7,265.3,484.8,262.3,484.8,258.6"/>
		<path fill="#FFFFFF" d="M2104.8,518.9c0-3.7,2.9-6.7,6.5-6.7c3.6,0,6.5,3,6.5,6.7c0,3.7-2.9,6.7-6.5,6.7
			C2107.7,525.5,2104.8,522.6,2104.8,518.9"/>
		<path fill="#FFFFFF" d="M633.8,209.3c0-3.7,2.9-6.7,6.5-6.7c3.6,0,6.5,3,6.5,6.7c0,3.7-2.9,6.7-6.5,6.7
			C636.7,215.9,633.8,212.9,633.8,209.3"/>
		<path fill="#FFFFFF" d="M1755,841.6c0-3.7,2.9-6.7,6.5-6.7c3.6,0,6.5,3,6.5,6.7c0,3.7-2.9,6.7-6.5,6.7
			C1757.9,848.3,1755,845.3,1755,841.6"/>
		<path fill="#FFFFFF" d="M301.4,173.1c0-3.7,2.9-6.7,6.5-6.7c3.6,0,6.5,3,6.5,6.7c0,3.7-2.9,6.7-6.5,6.7
			C304.3,179.7,301.4,176.7,301.4,173.1"/>
		<path fill="#FFFFFF" d="M544.7,231.4c0-3.7,2.9-6.7,6.5-6.7c3.6,0,6.5,3,6.5,6.7c0,3.7-2.9,6.7-6.5,6.7
			C547.7,238,544.7,235.1,544.7,231.4"/>
		<path fill="#FFFFFF" d="M326,355.1c0-3.7,2.9-6.7,6.5-6.7c3.6,0,6.5,3,6.5,6.7c0,3.7-2.9,6.7-6.5,6.7
			C329,361.7,326,358.8,326,355.1"/>
		<path fill="#FFFFFF" d="M687.6,186.4c0-3.7,2.9-6.7,6.5-6.7c3.6,0,6.5,3,6.5,6.7c0,3.7-2.9,6.7-6.5,6.7
			C690.5,193.1,687.6,190.1,687.6,186.4"/>
		<path fill="#FFFFFF" d="M827.8,314.9c0-3.7,2.9-6.7,6.5-6.7c3.6,0,6.5,3,6.5,6.7c0,3.7-2.9,6.7-6.5,6.7
			C830.8,321.6,827.8,318.6,827.8,314.9"/>
		<path fill="#FFFFFF" d="M609.1,438.6c0-3.7,2.9-6.7,6.5-6.7c3.6,0,6.5,3,6.5,6.7c0,3.7-2.9,6.7-6.5,6.7
			C612.1,445.3,609.1,442.3,609.1,438.6"/>
		<path fill="#FFFFFF" d="M593.3,46.9c-3-2-3.9-6.1-1.9-9.2c1.9-3.1,6-4,9-2c3,2,3.9,6.1,1.9,9.2C600.3,48,596.3,48.9,593.3,46.9"/>
		<path fill="#FFFFFF" d="M1293.5,822.1c-3-2-3.9-6.1-1.9-9.2c1.9-3.1,6-4,9-2c3,2,3.9,6.1,1.9,9.2
			C1300.5,823.1,1296.5,824,1293.5,822.1"/>
		<path fill="#FFFFFF" d="M1474.9,770.5c-3-2-3.9-6.1-2-9.2c2-3.1,6-4,9-2c3,2,3.9,6.1,1.9,9.2
			C1482,771.6,1477.9,772.5,1474.9,770.5"/>
		<path fill="#FFFFFF" d="M2053.4,453.7c0-8,6.4-14.5,14.2-14.5c7.9,0,14.2,6.5,14.2,14.5c0,8-6.4,14.5-14.2,14.5
			C2059.8,468.2,2053.4,461.7,2053.4,453.7"/>
		<path fill="#FFFFFF" d="M1827.4,468.2c0-3.7,2.9-6.7,6.5-6.7c3.6,0,6.5,3,6.5,6.7c0,3.7-2.9,6.7-6.5,6.7
			C1830.4,474.8,1827.4,471.9,1827.4,468.2"/>
		<path fill="#FFFFFF" d="M1912.4,672.1c0-3.7,2.9-6.7,6.5-6.7c3.6,0,6.5,3,6.5,6.7c0,3.7-2.9,6.7-6.5,6.7
			C1915.3,678.7,1912.4,675.7,1912.4,672.1"/>
		<path fill="#FFFFFF" d="M2052.7,800.6c0-3.7,2.9-6.7,6.5-6.7c3.6,0,6.5,3,6.5,6.7c0,3.7-2.9,6.7-6.5,6.7
			C2055.6,807.3,2052.7,804.3,2052.7,800.6"/>
		<path fill="#FFFFFF" d="M1834,924.3c0-3.7,2.9-6.7,6.5-6.7c3.6,0,6.5,3,6.5,6.7c0,3.7-2.9,6.7-6.5,6.7
			C1836.9,931,1834,928,1834,924.3"/>
		<path fill="#FFFFFF" d="M1046,130.1c0-8,6.4-14.5,14.2-14.5c7.9,0,14.2,6.5,14.2,14.5c0,8-6.4,14.5-14.2,14.5
			C1052.4,144.6,1046,138.1,1046,130.1"/>
		<path fill="#FFFFFF" d="M821.9,92c0-3.7,2.9-6.7,6.5-6.7c3.6,0,6.5,3,6.5,6.7c0,3.7-2.9,6.7-6.5,6.7
			C824.9,98.7,821.9,95.7,821.9,92"/>
		<path fill="#FFFFFF" d="M906.9,295.9c0-3.7,2.9-6.7,6.5-6.7s6.5,3,6.5,6.7c0,3.7-2.9,6.7-6.5,6.7S906.9,299.6,906.9,295.9"/>
		<path fill="#FFFFFF" d="M1294.7,61.9c0-3.7,2.9-6.7,6.5-6.7c3.6,0,6.5,3,6.5,6.7c0,3.7-2.9,6.7-6.5,6.7
			C1297.7,68.6,1294.7,65.6,1294.7,61.9"/>
		<path fill="#FFFFFF" d="M1435,190.5c0-3.7,2.9-6.7,6.5-6.7c3.6,0,6.5,3,6.5,6.7s-2.9,6.7-6.5,6.7
			C1437.9,197.2,1435,194.2,1435,190.5"/>
		<path fill="#FFFFFF" d="M1947.4,80.8c0-3.7,2.9-6.7,6.5-6.7c3.6,0,6.5,3,6.5,6.7c0,3.7-2.9,6.7-6.5,6.7
			C1950.3,87.5,1947.4,84.5,1947.4,80.8"/>
		<path fill="#FFFFFF" d="M2087.7,209.4c0-3.7,2.9-6.7,6.5-6.7c3.6,0,6.5,3,6.5,6.7s-2.9,6.7-6.5,6.7
			C2090.6,216.1,2087.7,213.1,2087.7,209.4"/>
		<path fill="#FFFFFF" d="M1572.8,1065c0-8,6.4-14.5,14.2-14.5s14.2,6.5,14.2,14.5c0,8-6.4,14.5-14.2,14.5
			S1572.8,1073.1,1572.8,1065"/>
		<path fill="#FFFFFF" d="M1346.8,1079.6c0-3.7,2.9-6.7,6.5-6.7c3.6,0,6.5,3,6.5,6.7c0,3.7-2.9,6.7-6.5,6.7
			C1349.7,1086.2,1346.8,1083.2,1346.8,1079.6"/>
		<path fill="#FFFFFF" d="M1140.1,1180.6c0-3.7,2.9-6.7,6.5-6.7c3.6,0,6.5,3,6.5,6.7c0,3.7-2.9,6.7-6.5,6.7
			C1143,1187.2,1140.1,1184.2,1140.1,1180.6"/>
		<path fill="#FFFFFF" d="M1479.7,1787.8c0-3.7,2.9-6.7,6.5-6.7c3.6,0,6.5,3,6.5,6.7c0,3.7-2.9,6.7-6.5,6.7
			C1482.6,1794.5,1479.7,1791.5,1479.7,1787.8"/>
		<path fill="#FFFFFF" d="M154.2,1612.1c0-3.7,2.9-6.7,6.5-6.7c3.6,0,6.5,3,6.5,6.7c0,3.7-2.9,6.7-6.5,6.7
			C157.1,1618.8,154.2,1615.8,154.2,1612.1"/>
		<path fill="#FFFFFF" d="M176,1384.1c0-8,6.4-14.5,14.2-14.5c7.9,0,14.2,6.5,14.2,14.5c0,8-6.4,14.5-14.2,14.5
			C182.4,1398.6,176,1392.1,176,1384.1"/>
		<path fill="#FFFFFF" d="M391.7,1676.7c0-8,6.4-14.5,14.2-14.5c7.9,0,14.2,6.5,14.2,14.5c0,8-6.4,14.5-14.2,14.5
			C398.1,1691.2,391.7,1684.7,391.7,1676.7"/>
		<path fill="#FFFFFF" d="M279.2,897.5c0-3.7,2.9-6.7,6.5-6.7c3.6,0,6.5,3,6.5,6.7c0,3.7-2.9,6.7-6.5,6.7
			C282.1,904.2,279.2,901.2,279.2,897.5"/>
		<path fill="#FFFFFF" d="M817.9,1286.8c0-3.7,2.9-6.7,6.5-6.7c3.6,0,6.5,3,6.5,6.7c0,3.7-2.9,6.7-6.5,6.7
			C820.8,1293.4,817.9,1290.4,817.9,1286.8"/>
		<path fill="#FFFFFF" d="M754,1201.8c0-3.7,2.9-6.7,6.5-6.7c3.6,0,6.5,3,6.5,6.7c0,3.7-2.9,6.7-6.5,6.7
			C756.9,1208.4,754,1205.5,754,1201.8"/>
		<path fill="#FFFFFF" d="M1239.7,1865.3c0-3.7,2.9-6.7,6.5-6.7c3.6,0,6.5,3,6.5,6.7c0,3.7-2.9,6.7-6.5,6.7
			C1242.6,1872,1239.7,1869,1239.7,1865.3"/>
		<path fill="#FFFFFF" d="M1175.8,1780.3c0-3.7,2.9-6.7,6.5-6.7c3.6,0,6.5,3,6.5,6.7c0,3.7-2.9,6.7-6.5,6.7
			C1178.7,1787,1175.8,1784,1175.8,1780.3"/>
		<path fill="#FFFFFF" d="M1167.8,614.2c0-3.7,2.9-6.7,6.5-6.7c3.6,0,6.5,3,6.5,6.7c0,3.7-2.9,6.7-6.5,6.7
			C1170.7,620.8,1167.8,617.9,1167.8,614.2"/>
		<path fill="#FFFFFF" d="M810.3,694.4c0-3.7,2.9-6.7,6.5-6.7c3.6,0,6.5,3,6.5,6.7c0,3.7-2.9,6.7-6.5,6.7
			C813.3,701.1,810.3,698.1,810.3,694.4"/>
		<path fill="#FFFFFF" d="M828.5,548.2c0-3.7,2.9-6.7,6.5-6.7c3.6,0,6.5,3,6.5,6.7c0,3.7-2.9,6.7-6.5,6.7
			C831.4,554.8,828.5,551.8,828.5,548.2"/>
		<path fill="#FFFFFF" d="M711.3,1326.6c-2-7.8,2.5-15.7,10.1-17.8c7.6-2.1,15.4,2.6,17.4,10.3c2,7.8-2.5,15.7-10.1,17.8
			C721,1339,713.3,1334.4,711.3,1326.6"/>
		<path fill="#FFFFFF" d="M496.4,1399.7c-0.9-3.6,1.2-7.2,4.7-8.1c3.5-0.9,7.1,1.2,8,4.7c0.9,3.6-1.2,7.2-4.7,8.2
			C500.9,1405.4,497.3,1403.3,496.4,1399.7"/>
		<path fill="#FFFFFF" d="M629.4,1574.7c-0.9-3.6,1.2-7.2,4.7-8.1c3.5-0.9,7.1,1.2,8,4.7c0.9,3.6-1.2,7.2-4.7,8.1
			C633.8,1580.3,630.3,1578.2,629.4,1574.7"/>
		<path fill="#FFFFFF" d="M797,1662.3c-0.9-3.6,1.2-7.2,4.7-8.1c3.5-0.9,7.1,1.2,8,4.7c0.9,3.6-1.2,7.2-4.7,8.2
			C801.5,1668,798,1665.8,797,1662.3"/>
		<path fill="#FFFFFF" d="M150.1,600.5c0-8,6.4-14.5,14.2-14.5c7.9,0,14.2,6.5,14.2,14.5c0,8-6.4,14.5-14.2,14.5
			C156.5,615.1,150.1,608.6,150.1,600.5"/>
		<path fill="#FFFFFF" d="M179,1198.9c0-3.7,2.9-6.7,6.5-6.7c3.6,0,6.5,3,6.5,6.7c0,3.7-2.9,6.7-6.5,6.7
			C182,1205.6,179,1202.6,179,1198.9"/>
		<path fill="#FFFFFF" d="M149.3,947.5c0-3.7,2.9-6.7,6.5-6.7c3.6,0,6.5,3,6.5,6.7c0,3.7-2.9,6.7-6.5,6.7
			C152.3,954.2,149.3,951.2,149.3,947.5"/>
		<path fill="#FFFFFF" d="M205.7,950c0-8,6.4-14.5,14.2-14.5c7.9,0,14.2,6.5,14.2,14.5c0,8-6.4,14.5-14.2,14.5
			C212.1,964.5,205.7,958,205.7,950"/>
		<path fill="#FFFFFF" d="M1720,982.2c0-8,6.4-14.5,14.2-14.5c7.9,0,14.2,6.5,14.2,14.5c0,8-6.4,14.5-14.2,14.5
			C1726.4,996.7,1720,990.2,1720,982.2"/>
		<path fill="#FFFFFF" d="M1545.2,660c0-8,6.4-14.5,14.2-14.5c7.9,0,14.2,6.5,14.2,14.5c0,8-6.4,14.5-14.2,14.5
			C1551.6,674.5,1545.2,668,1545.2,660"/>
		<path fill="#FFFFFF" d="M1506.4,127.5c0-3.7,2.9-6.7,6.5-6.7c3.6,0,6.5,3,6.5,6.7c0,3.7-2.9,6.7-6.5,6.7
			C1509.3,134.1,1506.4,131.1,1506.4,127.5"/>
		<path fill="#FFFFFF" d="M1916.8,705.6c0-3.7,2.9-6.7,6.5-6.7c3.6,0,6.5,3,6.5,6.7c0,3.7-2.9,6.7-6.5,6.7
			C1919.7,712.3,1916.8,709.3,1916.8,705.6"/>
		<path fill="#FFFFFF" d="M1755.3,346.1c0-3.7,2.9-6.7,6.5-6.7c3.6,0,6.5,3,6.5,6.7c0,3.7-2.9,6.7-6.5,6.7
			C1758.2,352.8,1755.3,349.8,1755.3,346.1"/>
		<path fill="#FFFFFF" d="M2024.1,44.1c0-3.7,2.9-6.7,6.5-6.7c3.6,0,6.5,3,6.5,6.7c0,3.7-2.9,6.7-6.5,6.7
			C2027,50.8,2024.1,47.8,2024.1,44.1"/>
		<path fill="#FFFFFF" d="M107.3,1038.7c0-3.7,2.9-6.7,6.5-6.7c3.6,0,6.5,3,6.5,6.7c0,3.7-2.9,6.7-6.5,6.7
			C110.3,1045.4,107.3,1042.4,107.3,1038.7"/>
		<path fill="#FFFFFF" d="M188.9,911c0-3.7,2.9-6.7,6.5-6.7c3.6,0,6.5,3,6.5,6.7c0,3.7-2.9,6.7-6.5,6.7
			C191.8,917.7,188.9,914.7,188.9,911"/>
		<path fill="#FFFFFF" d="M151.4,290.8c0-3.7,2.9-6.7,6.5-6.7c3.6,0,6.5,3,6.5,6.7c0,3.7-2.9,6.7-6.5,6.7
			C154.4,297.5,151.4,294.5,151.4,290.8"/>
		<path fill="#FFFFFF" d="M1972.6,106.9c0-3.7,2.9-6.7,6.5-6.7c3.6,0,6.5,3,6.5,6.7c0,3.7-2.9,6.7-6.5,6.7
			C1975.5,113.5,1972.6,110.5,1972.6,106.9"/>
		<path fill="#FFFFFF" d="M1894.2,359.1c0-3.7,2.9-6.7,6.5-6.7c3.6,0,6.5,3,6.5,6.7c0,3.7-2.9,6.7-6.5,6.7
			C1897.1,365.8,1894.2,362.8,1894.2,359.1"/>
		<path fill="#FFFFFF" d="M102.4,151.8c0-3.7,2.9-6.7,6.5-6.7c3.6,0,6.5,3,6.5,6.7c0,3.7-2.9,6.7-6.5,6.7
			C105.3,158.5,102.4,155.5,102.4,151.8"/>
		<path fill="#FFFFFF" d="M171.2,292.6c0-8,6.4-14.5,14.2-14.5s14.2,6.5,14.2,14.5c0,8-6.4,14.5-14.2,14.5S171.2,300.6,171.2,292.6"
			/>
		<path fill="#FFFFFF" d="M2091,221.2c0-3.7,2.9-6.7,6.5-6.7c3.6,0,6.5,3,6.5,6.7c0,3.7-2.9,6.7-6.5,6.7
			C2093.9,227.8,2091,224.8,2091,221.2"/>
		<path fill="#FFFFFF" d="M1884.3,322.1c0-3.7,2.9-6.7,6.5-6.7c3.6,0,6.5,3,6.5,6.7c0,3.7-2.9,6.7-6.5,6.7
			C1887.2,328.8,1884.3,325.8,1884.3,322.1"/>
		<path fill="#FFFFFF" d="M2223.9,929.4c0-3.7,2.9-6.7,6.5-6.7c3.6,0,6.5,3,6.5,6.7c0,3.7-2.9,6.7-6.5,6.7
			C2226.8,936.1,2223.9,933.1,2223.9,929.4"/>
		<path fill="#FFFFFF" d="M1562.1,428.4c0-3.7,2.9-6.7,6.5-6.7c3.6,0,6.5,3,6.5,6.7c0,3.7-2.9,6.7-6.5,6.7
			C1565,435,1562.1,432,1562.1,428.4"/>
		<path fill="#FFFFFF" d="M1498.2,343.4c0-3.7,2.9-6.7,6.5-6.7c3.6,0,6.5,3,6.5,6.7c0,3.7-2.9,6.7-6.5,6.7
			C1501.1,350,1498.2,347,1498.2,343.4"/>
		<path fill="#FFFFFF" d="M1983.9,1006.9c0-3.7,2.9-6.7,6.5-6.7c3.6,0,6.5,3,6.5,6.7c0,3.7-2.9,6.7-6.5,6.7
			C1986.8,1013.6,1983.9,1010.6,1983.9,1006.9"/>
		<path fill="#FFFFFF" d="M1920,921.9c0-3.7,2.9-6.7,6.5-6.7c3.6,0,6.5,3,6.5,6.7c0,3.7-2.9,6.7-6.5,6.7
			C1922.9,928.6,1920,925.6,1920,921.9"/>
		<path fill="#FFFFFF" d="M1455.5,468.2c-2-7.8,2.5-15.7,10.1-17.8c7.6-2.1,15.4,2.6,17.4,10.3c2,7.8-2.5,15.7-10.1,17.8
			C1465.3,480.6,1457.5,476,1455.5,468.2"/>
		<path fill="#FFFFFF" d="M1240.6,541.3c-0.9-3.6,1.2-7.2,4.7-8.1c3.5-0.9,7.1,1.2,8,4.7c0.9,3.6-1.2,7.2-4.7,8.2
			C1245.1,547,1241.5,544.9,1240.6,541.3"/>
		<path fill="#FFFFFF" d="M1373.6,716.3c-0.9-3.6,1.2-7.2,4.7-8.1c3.5-0.9,7.1,1.2,8,4.7c0.9,3.6-1.2,7.2-4.7,8.1
			C1378.1,721.9,1374.5,719.8,1373.6,716.3"/>
		<path fill="#FFFFFF" d="M1541.3,803.9c-0.9-3.6,1.2-7.2,4.7-8.1c3.5-0.9,7.1,1.2,8,4.7c0.9,3.6-1.2,7.2-4.7,8.2
			C1545.8,809.6,1542.2,807.4,1541.3,803.9"/>
	</g>
	<g clip-path="url(#SVGID_2_)">
		<g>
			<g>
				<path fill="#361960" d="M1085.1,1511.2c12.3-131.7-67.9-250.6-187.3-292.6c-7.8-164-135.2-301.4-303.4-317.2
					c-118.6-11.1-228.5,41-296.4,128.8c-28.7-12-59.8-19.9-92.4-23c-138.8-13-265,65.9-318.4,186.7c-12.4-3.2-25.2-5.5-38.4-6.7
					c-134.6-12.6-253.9,86.3-266.5,220.8c-12.6,134.6,86.3,253.9,220.9,266.5c1.5,0.1,3,0.2,4.5,0.3c0.7,0.1,1.5,0.3,2.2,0.3
					l978.3,91.7c2.2,0.2,4.3,0.2,6.4,0.1C942.8,1772.1,1071.1,1660.8,1085.1,1511.2z"/>
				<path fill="#361960" d="M2512.9,1584.3c14.9-159.1-82-302.9-226.3-353.5c-9.4-198.1-163.4-364.2-366.6-383.3
					c-143.3-13.4-276.1,49.6-358.2,155.6c-34.7-14.5-72.2-24.1-111.7-27.8c-167.7-15.7-320.2,79.6-384.8,225.6
					c-15-3.9-30.4-6.6-46.4-8.1c-162.6-15.2-306.8,104.2-322,266.9c-15.2,162.6,104.3,306.8,266.9,322c1.8,0.2,3.6,0.2,5.4,0.4
					c0.9,0.1,1.8,0.3,2.7,0.4l1182.1,110.8c2.6,0.2,5.2,0.2,7.8,0.1C2341,1899.5,2496,1765,2512.9,1584.3z"/>
			</g>
			<g>
				<path fill="#2D1651" d="M1103,1680.3c-18.1-121.8,50.5-236.3,159.4-281.3c-1-152.8,110.5-286.9,266-310
					c109.7-16.3,214.4,26.7,281.9,104.8c26.1-12.6,54.5-21.5,84.7-26c128.3-19.1,249.6,47.9,305.3,157.5c11.4-3.6,23.1-6.4,35.3-8.2
					c124.4-18.5,240.3,67.4,258.8,191.9c18.5,124.4-67.4,240.3-191.9,258.8c-1.4,0.2-2.8,0.3-4.2,0.5c-0.7,0.1-1.4,0.3-2.1,0.4
					L1391.8,1903c-2,0.3-4,0.4-6,0.4C1248.4,1915.6,1123.6,1818.6,1103,1680.3z"/>
				<path fill="#2D1651" d="M-220.2,1819.9c-21.8-147.1,61-285.6,192.6-339.9c-1.2-184.6,133.5-346.7,321.4-374.6
					c132.5-19.7,259.1,32.2,340.7,126.6c31.5-15.2,65.9-26,102.4-31.4c155.1-23,301.6,57.9,368.9,190.3c13.7-4.3,28-7.7,42.7-9.9
					c150.3-22.3,290.4,81.5,312.7,231.8c22.3,150.4-81.5,290.4-231.8,312.7c-1.7,0.2-3.3,0.4-5,0.6c-0.8,0.2-1.7,0.4-2.5,0.5
					L128.7,2089c-2.4,0.4-4.8,0.5-7.2,0.5C-44.6,2104.2-195.4,1987-220.2,1819.9z"/>
			</g>
			<g>
				<path fill="#130923" d="M1039.9,1743.6c0-106.9-73.5-196.6-172.8-221.4c-18.6-131.4-131.6-232.4-268.1-232.4
					c-96.3,0-180.9,50.3-228.9,126c-24-7.5-49.6-11.5-76.1-11.5c-112.7,0-208.3,73-242.2,174.3c-10.2-1.6-20.7-2.5-31.4-2.5
					c-109.3,0-197.9,88.6-197.9,197.9c0,109.3-45.1,410.9,64.2,410.9c1.2,0,71.3,7.7,72.5,7.6c-15.3-4.3,63.5,0.9,64.2,0.9
					l794.4-1.6c1.8,0,243.5,206.4,171.4-10.8C1108.6,2173.9,1039.9,1865.1,1039.9,1743.6z"/>
				<path fill="#130923" d="M2485.3,1860.7c-0.3-164.3-89.5-301.9-209.5-339.7c-22.9-201.8-159.7-356.8-324.7-356.5
					c-116.4,0.2-218.4,77.7-276.2,194.1c-29.1-11.5-60-17.6-92-17.5c-136.2,0.3-251.5,112.7-292.2,268.4c-12.4-2.5-25-3.8-37.9-3.8
					c-132,0.3-238.8,136.6-238.5,304.5c0.3,167.9,107.7,303.8,239.7,303.5c1.5,0,2.9-0.1,4.4-0.1c0.7,0.1,116.5-2.3,117.2-2.3
					l844.8,0.6c2.1,0,202.1-0.2,204.1-0.6C2569.2,2202.7,2485.6,2047.3,2485.3,1860.7z"/>
			</g>
		</g>
	</g>
	<g clip-path="url(#SVGID_2_)">
		<g>
			<g>
				<path fill="#808080" d="M1242.8,518.9c-24.1,0-48.2,145-48.2,145c0,144.7,0,352.7,0,352.7h48.2h48.2c0,0,0-208,0-352.7
					C1290.9,663.9,1265.4,518.9,1242.8,518.9z"/>
			</g>
			<rect x="1194.6" y="698.5" fill="#1C1E2D" width="96.3" height="9.9"/>
			<rect x="1194.6" y="682.8" fill="#1C1E2D" width="96.3" height="9.9"/>
			<rect x="1194.6" y="951.3" fill="#1C1E2D" width="96.3" height="9.9"/>
			<rect x="1230" y="744.7" fill="#1C1E2D" width="25.5" height="21.3"/>
		</g>
		<g>
			<g>
				<path fill="#808080" d="M930,518.9c-24.1,0-48.2,145-48.2,145c0,144.7,0,352.7,0,352.7H930h48.2c0,0,0-208,0-352.7
					C978.1,663.9,952.6,518.9,930,518.9z"/>
			</g>
			<rect x="881.8" y="698.5" fill="#1C1E2D" width="96.3" height="9.9"/>
			<rect x="881.8" y="682.8" fill="#1C1E2D" width="96.3" height="9.9"/>
			<rect x="881.8" y="951.3" fill="#1C1E2D" width="96.3" height="9.9"/>
			<rect x="917.2" y="744.7" fill="#1C1E2D" width="25.5" height="21.3"/>
		</g>
		<g>
			<g>
				<path fill="#C65060" d="M1086.4,310.1c-14.7,0-108.2,57.8-108.2,227.5c0,169.7,0,413.7,0,413.7h108.2h108.2c0,0,0-244,0-413.7
					C1194.6,367.9,1101,310.1,1086.4,310.1z"/>
			</g>
		</g>
		<rect x="1006.7" y="1089.2" fill="#FDD841" width="159.3" height="509.7"/>
		<rect x="978.1" y="554.1" fill="#181824" width="216.5" height="10.2"/>
		<g>
			<g>
				<path fill="#FFFFFF" d="M1216.6,896.9c-33-49.6-55-249.3-77.1-348.5c-1.8-8.3-3.8-19.3-5.7-19.3h-94.9c-2,0-3.9,9.6-5.7,17.9
					c-22,99.2-44,302.6-77.1,352.2c-28.4,42.7-130.2,114.1-156.8,176.3h574.1C1346.8,1013.3,1245,939.6,1216.6,896.9z"/>
			</g>
			<g>
				<path fill="#3C3C3B" d="M1086.6,434.1c0,0-26.4,5.1-47.7,95h94.9C1112.5,439.2,1086.6,434.1,1086.6,434.1z"/>
			</g>
			<g>
				<path fill="#3C3C3B" d="M799.3,1075.5c-4.3,13.8-6.7,20.6-6.5,29l203.6,47.1h89.9h89.9l203.6-47.1c0.3-8.5-2.2-15.2-6.5-29
					H799.3z"/>
			</g>
			<g>
				<defs>
					<path id="SVGID_3_" d="M1216.6,896.9c-33-49.6-55-249.3-77.1-348.5c-1.8-8.3-3.8-19.3-5.7-19.3h-94.9c-2,0-3.9,9.6-5.7,17.9
						c-22,99.2-44,302.6-77.1,352.2c-28.4,42.7-130.2,114.1-156.8,176.3h574.1C1346.8,1013.3,1245,939.6,1216.6,896.9z"/>
				</defs>
				<clipPath id="SVGID_4_">
					<use xlink:href="#SVGID_3_"  overflow="visible"/>
				</clipPath>
			</g>
		</g>
		<g>
			<g>
				<path fill="#F2F2F2" d="M1115.7,1158.3c0,0-7-98.2,18.1-98.2c25.1,0,46.1,23.6,57.1,109
					C1190.9,1169.1,1150.6,1191.7,1115.7,1158.3z"/>
			</g>
			<g>
				<path fill="#F2F2F2" d="M1061.6,1158.3c0,0,7-98.2-18.1-98.2c-25.1,0-46.1,23.6-57.1,109
					C986.4,1169.1,1026.7,1191.7,1061.6,1158.3z"/>
			</g>
		</g>
		<rect x="1042.5" y="581.2" fill="#C65060" width="87.8" height="10.2"/>
		
			<rect x="883.4" y="867.4" transform="matrix(-1.836970e-16 1 -1 -1.836970e-16 1958.8767 -218.9372)" fill="#C65060" width="411.1" height="5.1"/>
	</g>
	<g clip-path="url(#SVGID_2_)">
		<g>
			<circle fill="#F2F2F2" cx="665" cy="1801.5" r="186.1"/>
			<circle fill="#F2F2F2" cx="203.4" cy="1796.5" r="173.7"/>
			<circle fill="#F2F2F2" cx="985.2" cy="1640.2" r="345"/>
			<circle fill="#F2F2F2" cx="1224" cy="1681.9" r="303.3"/>
			<circle fill="#F2F2F2" cx="1568.5" cy="1818.9" r="203.5"/>
			<circle fill="#F2F2F2" cx="1792.3" cy="1850.7" r="137"/>
			<circle fill="#F2F2F2" cx="462" cy="1833.3" r="137"/>
			<circle fill="#F2F2F2" cx="-46.8" cy="1801.5" r="87.8"/>
			<circle fill="#F2F2F2" cx="-46.8" cy="1535.9" r="50.7"/>
			<circle fill="#F2F2F2" cx="2290.7" cy="1841.2" r="84.4"/>
			<circle fill="#F2F2F2" cx="1827.4" cy="1586.6" r="51"/>
			<circle fill="#F2F2F2" cx="2040.5" cy="1818.9" r="191.1"/>
		</g>
		<g>
			<circle fill="#F2F2F2" cx="327.8" cy="1539.4" r="38.2"/>
			<circle fill="#F2F2F2" cx="537.5" cy="1535.9" r="12.6"/>
		</g>
		<g>
			<circle fill="#F2F2F2" cx="1453.2" cy="1349" r="38.2"/>
			<circle fill="#F2F2F2" cx="1662.9" cy="1345.5" r="12.6"/>
		</g>
	</g>
</g>
</svg>
